<?xml version="1.0" encoding="utf-8"?>
<!-- Generator: Adobe Illustrator 24.0.1, SVG Export Plug-In . SVG Version: 6.00 Build 0)  -->
<svg version="1.1" id="Layer_1" xmlns="http://www.w3.org/2000/svg" xmlns:xlink="http://www.w3.org/1999/xlink" x="0px" y="0px"
	 viewBox="0 0 1471.4 1393" style="enable-background:new 0 0 1471.4 1393;" xml:space="preserve">
<style type="text/css">
	.st0{clip-path:url(#SVGID_2_);fill:url(#SVGID_3_);}
	.st1{fill:url(#SVGID_4_);stroke:url(#SVGID_5_);stroke-width:4;stroke-miterlimit:10;}
	.st2{fill:#FFFFFF;}
	.st3{font-family:'TypoRoundRegularDemo';}
	.st4{font-size:93.9686px;}
	.st5{fill:url(#SVGID_6_);}
	.st6{fill:url(#SVGID_7_);}
	.st7{fill:url(#SVGID_8_);}
	.st8{fill:url(#SVGID_9_);}
	.st9{fill:url(#SVGID_10_);}
	.st10{fill:url(#SVGID_11_);}
	.st11{fill:url(#SVGID_12_);}
	.st12{fill:url(#SVGID_13_);}
</style>
<g>
	<defs>
		<path id="SVGID_1_" d="M1442.6,136.9c-18.9-13.4-41.2-17.4-64-11.6L1031.9,214v336.3l-66.7-46l-63.5,84.9V247.4l1.4-0.4
			l-74.9,19.1c5.9,10.8,9.2,23.1,9.2,36.1c0,18.3-6.7,35.6-18.5,49.5v455.3c3.9,3.2,7.5,6.5,10.8,10.1c16,17.4,24.8,39.4,24.8,62.3
			c0,22.8-8.8,44.8-24.8,62.2c-3.3,3.7-7,7-10.8,10.2v194c4.2,2.9,8.1,6.1,11.8,9.6c18.7,17.9,29.2,41.8,29.2,66.7
			c0,25-10.5,48.9-29.2,66.8c-3.7,3.5-7.6,6.7-11.8,9.7v79.8l598.7-154.6c32.2-8.4,53.7-34.6,53.7-65.8V191.1
			C1471.4,169.1,1461.4,150.2,1442.6,136.9z M1299.6,30.2l-18.7-10.3c-13.3-7.3-28.4-8.1-42.3-1.8L787.6,221.8
			c-1.5,0.7-2.1,2.3-1.5,3.7c0.7,1.4,2.4,2.1,3.9,1.5l508.7-186.7c2.2-0.8,3.7-2.7,3.8-4.8C1302.7,33.3,1301.6,31.3,1299.6,30.2z
			 M726,237.1L163,43.9c-14.5-5-29.4-3.2-41.9,5.2l-17.7,11.7c-1.9,1.2-2.8,3.3-2.4,5.4c0.4,2.2,1.9,3.9,4.2,4.5l618.9,171.7
			c1.5,0.4,3.2-0.4,3.7-1.8C728.3,239.2,727.5,237.6,726,237.1z M728.5,219.3L244.1,4.2C230.2-2,215.2-1.3,201.8,6l-18.6,10.3
			c-2,1.1-3.2,3.1-2.9,5.3c0.2,2.2,1.6,4,3.8,4.8l542.1,198.2c1.5,0.6,3.2-0.1,3.9-1.4C730.7,221.7,730,220,728.5,219.3z
			 M1379.4,74.8L1361.8,63c-12.6-8.4-27.5-10.2-42-5.1L789.9,244.4c-1.5,0.6-2.3,2.1-1.8,3.5c0.5,1.4,2.2,2.2,3.7,1.8l124.7-35.1
			l461.1-130c2.3-0.6,3.9-2.3,4.3-4.5C1382.2,78.1,1381.3,76,1379.4,74.8z M799.3,1183.8c-6.6-6.4-14.9-11.2-24.2-14V930
			c8.3-3.4,15.6-8.5,21.4-14.7c8.9-9.6,14.2-22.1,14.2-35.7c0-13.7-5.4-26.2-14.2-35.8c-5.8-6.2-13.1-11.3-21.4-14.7V334.7
			c11.2-7.1,18.5-19,18.5-32.5c0-21.6-18.9-39.1-42.2-39.1c-13.1,0-24.7,5.5-32.5,14.2l-271.3-70.6c-2.9-19-20.5-33.5-41.7-33.5
			c-13.1,0-24.8,5.5-32.5,14.2l-242-63c-6.4-26.9-29.8-46.9-63-46.9c-33.2,0-64.6,26.8-64.6,60c0,24.8,16.3,46.2,39.5,55.3v497.2
			c-14.8,6.1-25,19.9-25,35.8c0,16,10.2,29.7,25,35.8v380.2C18,1150.3,0,1172.8,0,1199.3c0,34,29.6,61.5,66.1,61.5
			c24.2,0,45.4-12.2,56.9-30.3l299.7,77.3c4.6,21.4,24.9,37.6,49.4,37.6c14.7,0,27.9-5.9,37.2-15.3l243.9,63h9l12.9-3.3v-115.2
			c9.3-2.8,17.5-7.6,24.2-13.9c10.4-10,16.8-23.4,16.8-38.4C816.1,1207.4,809.7,1193.8,799.3,1183.8z M740.9,1357l-218.5-56.4v-0.1
			l-94.5-24.4c0,0,0,0,0,0.1l-295.7-76.2v-0.2l-54.6-14.1l0.2-46.8c0,0-0.1,0-0.2,0V761.5c0.4-0.2,0.9-0.4,1.3-0.6l0.2-70.3
			c-0.5-0.2-1-0.5-1.5-0.7V146.7l51.9,10.3c0,0,0-0.1,0-0.1l2.1,0.5l0.2,0.1l609.1,154V1357z"/>
	</defs>
	<clipPath id="SVGID_2_">
		<use xlink:href="#SVGID_1_"  style="overflow:visible;"/>
	</clipPath>
	<linearGradient id="SVGID_3_" gradientUnits="userSpaceOnUse" x1="68.1239" y1="1263.447" x2="1411.4316" y2="120.7037">
		<stop  offset="0" style="stop-color:#A1D185"/>
		<stop  offset="0.68" style="stop-color:#3CBFBB"/>
		<stop  offset="1" style="stop-color:#17BECB"/>
	</linearGradient>
	<rect x="0" y="-2" class="st0" width="1471.4" height="1395"/>
</g>
<linearGradient id="SVGID_4_" gradientUnits="userSpaceOnUse" x1="118.5829" y1="710.0392" x2="726.2251" y2="710.0392" gradientTransform="matrix(0.9995 3.260875e-02 -3.260875e-02 0.9995 15.402 17.5668)">
	<stop  offset="0" style="stop-color:#A1D185"/>
	<stop  offset="0.68" style="stop-color:#3CBFBB"/>
	<stop  offset="1" style="stop-color:#17BECB"/>
</linearGradient>
<linearGradient id="SVGID_5_" gradientUnits="userSpaceOnUse" x1="116.5829" y1="710.0392" x2="728.2251" y2="710.0392" gradientTransform="matrix(0.9995 3.260875e-02 -3.260875e-02 0.9995 15.402 17.5668)">
	<stop  offset="0" style="stop-color:#A1D185"/>
	<stop  offset="0.68" style="stop-color:#3CBFBB"/>
	<stop  offset="1" style="stop-color:#17BECB"/>
</linearGradient>
<path class="st1" d="M615.2,1082.5c-0.1,4.6-4,8.2-8.6,8c-4.6-0.1-8.2-4-8-8.6c0.1-4.6,4-8.2,8.6-8
	C611.8,1074,615.4,1077.9,615.2,1082.5z M290,549.7c2.5-12.3,10.8-15.2,20-13.3c9.2,1.9,15.7,7.8,13.2,20
	c-2.5,12.3-11.9,20.8-21.1,18.9C293,573.5,287.6,562,290,549.7z M302.8,572.3c7.5,1.5,15.4-5.9,17.5-16.5c1-4.9,0.4-8.7-1.7-11.5
	c-1.9-2.4-4.9-4.1-9.2-5c-4.2-0.9-7.7-0.5-10.4,1c-3,1.7-5,5.1-6,9.9C290.9,560.9,295.3,570.8,302.8,572.3z M171.9,208.4
	c0.1-2.8,2.4-5,5.2-4.9c2.8,0.1,5,2.4,4.9,5.2c0,1.4-0.7,2.6-1.6,3.5l45.8,58.2c11.8-14.3,30.9-22.2,51-18.5
	c25.1,4.7,43.6,27,43.4,52.6c-0.1,9.2-2.4,17.8-6.4,25.2l292,243.7l1.3,3.1l-294-245.4l0,0c-10.9,18.7-32.8,30-56,25.7
	c-25.1-4.7-43.6-27-43.4-52.6c0.1-12.2,4.2-23.3,11-32.2l-46.2-58.7c-0.6,0.2-1.3,0.4-2,0.3C173.9,213.5,171.8,211.2,171.9,208.4z
	 M235.3,344.1c15.8,12.9,38,15.3,55.8,5.3c9.6-5.4,16.5-12.8,21-21.2L312,328l0.1,0.1c10.5-19.9,6.9-45.2-10.4-61.2
	c-20.6-19.1-52.9-17.8-72,2.9C216.5,284.1,205.9,320,235.3,344.1z M295.5,608.3l-30-6c0,0,3.8-19,7.8-23.4c3.2-3.5,9.1-4.9,13.4-4.1
	c1.1,0.2,2,0.6,2.8,1.1c1.4,0.9,7.4,4.6,11.4,5.4c3.9,0.8,10.9-0.3,12.6-0.6c0.9-0.2,1.9-0.1,3,0.1c4.2,0.9,9.2,4.5,10.8,8.9
	c2,5.6-1.8,24.6-1.8,24.6L295.5,608.3z M269.2,599.9l26.9,5.4l26.9,5.4c1.3-7.4,2.4-17.1,1.4-19.9c-1.3-3.5-5.4-6.3-8.5-7
	c-0.7-0.1-1.4-0.2-1.9-0.1c-0.4,0.1-8.7,1.6-13.7,0.6c-5-1-12.1-5.7-12.4-5.9c-0.4-0.3-1-0.5-1.7-0.6c-3.1-0.6-8,0.4-10.5,3.1
	C273.6,583.2,270.9,592.5,269.2,599.9z M506,387.8l3.2-33.3c0.5-5.5,4.9-9.6,9.8-9.1l53.3,5.1c4.9,0.5,8.4,5.3,7.9,10.8l-3.2,33.3
	c-0.5,5.5-4.9,9.6-9.8,9.1l-53.3-5.1C509,398.2,505.4,393.3,506,387.8z M516.1,348.8l27.1,24.2l31.2-18.6c-0.7-0.5-1.5-0.8-2.4-0.9
	l-53.3-5.1C517.8,348.3,516.9,348.4,516.1,348.8z M514.1,395.7l53.3,5.1c3.2,0.3,6.2-2.6,6.5-6.4l3.2-33.3c0.2-1.6-0.2-3.1-0.8-4.4
	l-33.5,20l-29.1-26c-0.9,1.1-1.5,2.5-1.6,4.1l-3.2,33.3C508.6,392,510.9,395.4,514.1,395.7z M137,1018.5c0.4-8.6,5.7-11.4,12.1-11.1
	c6.4,0.3,11.5,3.6,11.1,12.2c-0.4,8.6-5.9,15.3-12.3,15C141.5,1034.2,136.6,1027,137,1018.5z M139.1,1018.6
	c-0.3,7.4,3.7,13.6,8.9,13.9c5.2,0.2,9.8-5.6,10.1-13c0.2-3.4-0.6-5.9-2.4-7.6c-1.5-1.5-3.8-2.3-6.7-2.4c-2.9-0.1-5.3,0.5-6.9,1.8
	C140.3,1012.7,139.2,1015.2,139.1,1018.6z M246.5,321.4l-10.3,8.6l1.6-16.5l2.2-23.6c0.4-3.9,3.8-6.8,7.8-6.4l42.6,4
	c3.9,0.4,6.7,3.8,6.4,7.7l-2.2,23.7c-0.4,3.9-3.8,6.8-7.7,6.4L246.5,321.4z M245.7,319l1,0.1l40.2,3.8c2.6,0.2,4.9-1.7,5.1-4.3
	l2.2-23.7c0.2-2.6-1.7-4.9-4.2-5.1l-42.6-4c-2.6-0.2-4.9,1.7-5.2,4.3l-2.2,23.6l-1,10.8l5.9-4.9L245.7,319z M642.7,1102.2
	l-55.8,15.7c-5.1,1.4-10.6-2.1-12.2-7.8l-9.8-34.9c-1.6-5.7,1.2-11.6,6.3-13l55.8-15.7c5.1-1.4,10.6,2.1,12.2,7.8l9.8,34.9
	C650.6,1094.9,647.8,1100.8,642.7,1102.2z M641.8,1099.1c3.4-1,5.2-5,4.1-9l-9.8-34.9c-1.1-4-4.8-6.5-8.2-5.6l-55.8,15.7
	c-3.4,1-5.2,5-4.1,9l9.8,34.9c1.1,4,4.8,6.5,8.2,5.6L641.8,1099.1z M476.6,368.2c3.5-36.6,36.1-63.6,72.7-60.1
	c36.6,3.5,63.6,36.1,60.1,72.7c-2,21.5-14.1,39.6-31.1,50.3l58.5,90.1l-2.8,1.8l-58.6-90.2c-11.4,6.4-24.8,9.5-38.8,8.2
	C500.1,437.5,473.1,404.9,476.6,368.2z M537,438c35,3.3,66.2-22.4,69.5-57.4c3.3-35-22.4-66.2-57.4-69.5
	c-35-3.3-66.2,22.4-69.5,57.4C476.2,403.5,502,434.7,537,438z M282.5,1081.2l22.9,1c2.1,0.1,3.7,2.1,3.6,4.4l-0.6,14.3
	c-0.1,2.4-1.9,4.2-4,4.1l-22.9-1c-2.1-0.1-3.7-2.1-3.6-4.4l0.6-14.3C278.6,1083,280.4,1081.1,282.5,1081.2z M307.2,1084.8l-13.9,9.3
	l-13-10.5c-0.4,0.5-0.6,1.1-0.6,1.8l-0.6,14.3c-0.1,1.7,1,3.1,2.4,3.1l22.9,1c1.4,0.1,2.6-1.2,2.7-2.9l0.6-14.3
	C307.7,1085.9,307.5,1085.3,307.2,1084.8z M305.3,1083.5l-22.9-1c-0.4,0-0.7,0.1-1.1,0.2l12.1,9.7l12.9-8.6
	C306,1083.7,305.7,1083.5,305.3,1083.5z M465.6,769.8c-10.2-0.5-18.1-9.1-17.6-19.3c0.5-10.2,9.1-18.1,19.3-17.6
	c10.2,0.5,18.1,9.1,17.6,19.3C484.5,762.4,475.8,770.3,465.6,769.8z M465.8,766.8c8.5,0.4,15.7-6.2,16.1-14.7
	c0.4-8.5-6.2-15.7-14.7-16.1c-8.5-0.4-15.7,6.2-16.1,14.7C450.7,759.2,457.3,766.4,465.8,766.8z M464.3,799.2l-22.7-24.8
	c-6.1-6.6-9.2-15.3-8.8-24.3c0.4-9,4.3-17.3,10.9-23.4c6.6-6.1,15.3-9.2,24.3-8.8c9,0.4,17.3,4.3,23.4,10.9
	c6.1,6.6,9.2,15.3,8.8,24.3c-0.4,9-4.3,17.3-10.9,23.4L464.3,799.2z M443.8,772.3l20.7,22.6l22.6-20.7c6-5.5,9.6-13.1,9.9-21.3
	c0.4-8.2-2.5-16-8-22.1c-5.5-6-13.1-9.6-21.3-9.9c-8.2-0.4-16,2.5-22.1,8c-6,5.5-9.6,13.1-9.9,21.3
	C435.4,758.4,438.3,766.2,443.8,772.3z M405.8,951.1l-1.2,27.9l-0.9,19.5l-10.7-11.7l-47.5-2.1c-4.6-0.2-8.2-4.1-8-8.7l1.2-28
	c0.2-4.6,4.1-8.2,8.7-8l50.3,2.2C402.4,942.5,406,946.4,405.8,951.1z M403,950.9c0.1-3.1-2.3-5.7-5.3-5.8l-50.3-2.2
	c-3.1-0.1-5.6,2.2-5.8,5.3l-1.2,28c-0.1,3.1,2.2,5.7,5.3,5.8l47.5,2.1l1.2,0.1l0.8,0.9l6.1,6.7l0.6-12.8L403,950.9z M255.7,803.5
	l-1.2,26.1c-0.2,4.3-3.5,7.7-7.3,7.5l-41.8-1.9c-3.8-0.2-6.8-3.8-6.6-8.1L200,801c0.2-4.3,3.5-7.7,7.3-7.5l41.8,1.9
	C252.9,795.5,255.9,799.2,255.7,803.5z M205.2,796.3l22.1,17.8l23.6-15.8c-0.6-0.4-1.2-0.6-1.9-0.6l-41.8-1.9
	C206.5,795.8,205.8,796,205.2,796.3z M253.4,803.4c0.1-1.3-0.3-2.4-0.8-3.4l-25.4,17l-23.8-19.1c-0.6,0.9-1.1,2-1.1,3.3l-1.2,26.1
	c-0.1,3,1.8,5.6,4.4,5.7l41.8,1.9c2.5,0.1,4.7-2.3,4.9-5.3L253.4,803.4z M166.5,1041.6c1.9,3.6,1.3,16.8,1.3,16.8l-20.9-0.9
	l-20.9-0.9c0,0,0.6-13.3,2.8-16.6c1.8-2.7,5.7-4.3,8.6-4.2c0.7,0,1.4,0.2,2,0.4c1,0.5,5.5,2.3,8.3,2.5c2.7,0.1,7.4-1.3,8.5-1.7
	c0.6-0.2,1.3-0.3,2-0.3C161.2,1036.8,164.9,1038.8,166.5,1041.6z M165.8,1056.3c0.1-5.2-0.2-11.8-1.2-13.6c-1.2-2.2-4.3-3.7-6.5-3.8
	c-0.5,0-0.9,0-1.3,0.1c-0.2,0.1-5.7,2-9.2,1.8c-3.5-0.2-8.8-2.5-9-2.6c-0.3-0.1-0.8-0.2-1.2-0.3c-2.2-0.1-5.4,1.1-6.8,3.2
	c-1.2,1.7-2,8.3-2.4,13.5l18.8,0.8L165.8,1056.3z M153.1,439.1c-0.7-4.7,2.6-9,7.3-9.7c4.7-0.7,9,2.6,9.7,7.3
	c0.4,2.5-0.4,4.9-1.9,6.7l89.6,79.6c15.5-13.1,36.5-19.2,57.9-14.9c37.1,7.5,61.2,43.8,53.7,80.9c-7.5,37.1-43.8,61.2-80.9,53.7
	c-37.1-7.5-61.2-43.8-53.7-80.9c3-14.6,10.4-27.2,20.6-36.7l-89.7-79.7c-0.9,0.5-1.9,0.8-2.9,1C158.2,447,153.8,443.8,153.1,439.1z
	 M237.9,562.3c-7.2,35.5,15.9,70.1,51.3,77.3c35.5,7.2,70.1-15.9,77.3-51.3c7.2-35.5-15.9-70.1-51.3-77.3
	C279.7,503.9,245,526.9,237.9,562.3z M404.9,1164c0.3-6.9,6.2-12.3,13.1-12c6.9,0.3,12.3,6.2,12,13.1c-0.3,6.9-6.2,12.3-13.1,12
	C410,1176.8,404.6,1171,404.9,1164z M407,1164.1c-0.3,5.8,4.2,10.7,10,10.9c5.8,0.3,10.7-4.2,10.9-10c0.3-5.8-4.2-10.7-10-10.9
	C412.2,1153.9,407.3,1158.4,407,1164.1z M599.6,807.2l-1.6-1.5l28.1-17.4c-3.6-6.5-4.1-14.6-0.4-21.8c5.8-11.4,19.7-16,31.1-10.2
	c3.6,1.8,6.5,4.5,8.6,7.6l27.6-17.1l1.6,1.5l-28.1,17.4c3.6,6.5,4.1,14.6,0.4,21.8c-5.8,11.4-19.7,16-31.1,10.2
	c-3.6-1.8-6.5-4.5-8.6-7.6L599.6,807.2z M630.5,788.1c1.8,2.5,4.2,4.7,7.1,6.2c9.5,4.8,21.2,1,26-8.5c3-5.9,2.7-12.6-0.3-18
	L630.5,788.1z M629.4,786.3l32.8-20.3c-1.8-2.5-4.2-4.7-7.1-6.2c-9.5-4.8-21.2-1-26,8.5C626.1,774.2,626.4,780.9,629.4,786.3z
	 M625.3,572.2l0.8-19.2c0.1-3.2,2.8-5.6,6-5.5l34.4,1.5c3.2,0.1,5.6,2.8,5.5,6l-0.8,19.1l-0.6,13.4l-7.3-8l-32.5-1.4
	C627.6,578.1,625.1,575.4,625.3,572.2z M627.2,572.3c-0.1,2.1,1.5,3.9,3.6,4l32.5,1.4l0.8,0l0.5,0.6l4.2,4.6l0.4-8.8l0.8-19.1
	c0.1-2.1-1.5-3.9-3.7-4l-34.4-1.5c-2.1-0.1-3.9,1.5-4,3.6L627.2,572.3z M400.6,1180.2c-4.1-4.5-6.3-10.4-6-16.5
	c0.3-6.1,2.9-11.7,7.4-15.9c4.5-4.1,10.4-6.3,16.5-6c6.1,0.3,11.7,2.9,15.9,7.4c4.1,4.5,6.3,10.4,6,16.5c-0.3,6.1-2.9,11.7-7.4,15.9
	l-16.9,15.4L400.6,1180.2z M396.7,1163.8c-0.2,5.6,1.7,10.9,5.4,15l14,15.3l15.4-14c4.1-3.8,6.5-8.9,6.7-14.4
	c0.2-5.6-1.7-10.9-5.4-15c-3.8-4.1-8.9-6.5-14.4-6.7c-5.6-0.2-10.9,1.7-15,5.4C399.3,1153.1,396.9,1158.3,396.7,1163.8z
	 M701.1,1271.1c-0.2,5-4.3,8.8-9.3,8.7c-5-0.2-8.8-4.3-8.7-9.3c0.1-2.5,1.2-4.7,2.8-6.3l-67.4-110.8c-35.8,5.9-71.1-16-81.2-51.7
	c-5.2-18.5-2.7-37.4,5.7-53.2l-114.7-58.1c-8,16.7-23.1,29.3-41.3,33.9l24,97.8c2.7-0.4,5.4-0.5,8.2-0.4c25.7,1.1,45.6,23,44.5,48.6
	c-1.1,25.7-23,45.6-48.6,44.5c-25.7-1.1-45.6-23-44.5-48.6c1-22.1,17.2-39.9,38.1-43.8l-24-97.6c-5.1,1.1-10.4,1.6-15.9,1.3
	c-11.2-0.5-21.7-4-30.6-9.6l-28.6,53.1c7.7,5.4,12.6,14.5,12.2,24.6c-0.7,15.7-14.1,28-29.8,27.3c-15.7-0.7-28-14.1-27.3-29.8
	c0.7-15.7,14.1-28,29.8-27.3c5,0.2,9.7,1.7,13.7,4.2l28.6-53.1c-11.2-7.5-19.8-18.5-24.4-31.3l-119.6,36.5c1.5,4.9,2.2,10.2,2,15.7
	c-1.1,25.9-23.2,46-49.1,44.9c-25.9-1.1-46-23.2-44.9-49.1c1.1-25.9,23.2-46,49.1-44.9c19.6,0.9,35.9,13.7,42.2,31.2l119.6-36.5
	c-2.1-6.8-3.1-14-2.8-21.5c0.7-16,7.4-30.3,17.8-41l-65.1-65.4C252,863,239,868,225,867.4c-28.7-1.3-51.1-25.7-49.8-54.4
	c1.2-27.9,24.3-49.8,51.9-49.8l60.3-116.7l3.3,0.7l-60,116.2c28.2,1.8,50,26,48.7,54.3c-0.6,13.9-6.6,26.3-15.9,35.2l65,65.3
	c11.9-11.4,28.3-18.1,46-17.3c7.9,0.4,15.4,2.2,22.3,5.2l38.5-87.8l1.7,0.7c-24.3-11.5-40.6-36.7-39.3-65.2
	c1.7-37.8,33.8-67.2,71.6-65.6c7.1,0.3,13.9,1.7,20.2,4l125.1-102.5c-6-7.7-9.3-17.5-8.9-28c1-23.7,21.2-42.1,44.8-41
	c23.7,1,42.1,21.2,41,44.8c-1,23.7-21.2,42.1-44.8,41c-12.3-0.5-23.2-6.3-30.7-15L491.9,693.2c26.2,10.6,44.2,36.9,42.8,66.7
	c-1.7,37.8-33.8,67.2-71.6,65.6c-8.8-0.4-17.2-2.5-24.9-5.9l-38.5,87.8c15.7,7.9,27.6,22.1,32.3,39.2l160.7-126.5l1.2,1.4
	c-17.4-20.5-21.9-50.2-9-75.6c17.1-33.8,58.5-47.3,92.3-30.2c33.8,17.1,47.3,58.5,30.2,92.3c-17.1,33.8-58.5,47.3-92.3,30.2
	c-7.9-4-14.7-9.4-20.2-15.6L433.3,950l-0.4-0.5c1.2,5.4,1.8,11,1.5,16.8c-0.3,7.5-2,14.6-4.7,21.2l114.9,58.2
	c9.1-15.6,24-27.8,42.7-33.1c9.3-2.6,18.7-3.3,27.8-2.2L561.3,942c-0.7,0.3-1.6,0.4-2.4,0.4c-3.3-0.1-6-2.9-5.8-6.2
	c0.1-3.3,2.9-6,6.2-5.8c3.3,0.1,6,2.9,5.8,6.2c-0.1,1.7-0.8,3.2-1.9,4.2l55.1,70.1c26.9,4.4,50.2,23.8,58.1,51.7
	c10.8,38.3-11.6,78.3-50,89.1c-1.5,0.4-3.1,0.8-4.6,1.1l66.8,109.7c1.2-0.5,2.4-0.7,3.8-0.7C697.4,1262,701.3,1266.1,701.1,1271.1z
	 M616.7,835.5c32.3,16.4,71.8,3.4,88.2-28.8c16.4-32.3,3.4-71.8-28.8-88.2c-32.3-16.4-71.8-3.4-88.2,28.8
	C571.5,779.6,584.4,819.2,616.7,835.5z M646.8,604.7c22.6,1,41.8-16.6,42.8-39.2c1-22.6-16.6-41.8-39.2-42.8
	c-22.6-1-41.8,16.6-42.8,39.2C606.6,584.5,624.2,603.7,646.8,604.7z M463.3,822.4c36.1,1.6,66.8-26.5,68.4-62.6
	c1.3-29.1-16.6-54.6-42.5-64.3l-0.4,0.3l-0.6-0.7c-6-2.2-12.5-3.5-19.2-3.8c-36.1-1.6-66.8,26.5-68.4,62.6
	C399.1,790.1,427.2,820.8,463.3,822.4z M277,817.5c1.2-27.5-20.1-50.8-47.6-52c-27.5-1.2-50.8,20.1-52,47.6
	c-1.2,27.5,20.1,50.8,47.6,52C252.5,866.3,275.8,845,277,817.5z M149.9,989.6c-24.8-1.1-45.8,18.1-46.9,42.9
	c-1.1,24.8,18.1,45.8,42.9,46.9c24.8,1.1,45.8-18.1,46.9-42.9C193.9,1011.8,174.7,990.7,149.9,989.6z M294.6,1065.9
	c-15-0.7-27.8,11-28.5,26c-0.7,15,11,27.8,26,28.5c15,0.7,27.8-11,28.5-26C321.3,1079.3,309.6,1066.6,294.6,1065.9z M372.8,1166.4
	c-1.1,24.5,18,45.4,42.5,46.5c24.5,1.1,45.4-18,46.5-42.5c1.1-24.5-18-45.4-42.5-46.5C394.7,1122.8,373.9,1141.8,372.8,1166.4z
	 M431.6,966.2c1.5-33-24.2-61.1-57.2-62.5c-33-1.5-61.1,24.2-62.5,57.2c-1.5,33,24.2,61.1,57.2,62.5
	C402.1,1024.9,430.1,999.2,431.6,966.2z M625.6,1148.6c36.6-10.3,58-48.5,47.7-85.1c-10.3-36.6-48.5-58-85.1-47.7
	c-36.6,10.3-58,48.5-47.7,85.1C550.8,1137.5,589,1158.9,625.6,1148.6z"/>
<text transform="matrix(0.9683 -0.2496 0.2496 0.9683 1084.948 1241.1823)" class="st2 st3 st4">Edruptz</text>
<linearGradient id="SVGID_6_" gradientUnits="userSpaceOnUse" x1="4.711" y1="141.8808" x2="140.7835" y2="141.8808">
	<stop  offset="0" style="stop-color:#A1D185"/>
	<stop  offset="0.68" style="stop-color:#3CBFBB"/>
	<stop  offset="1" style="stop-color:#17BECB"/>
</linearGradient>
<circle class="st5" cx="72.7" cy="141.9" r="68"/>
<linearGradient id="SVGID_7_" gradientUnits="userSpaceOnUse" x1="4.711" y1="1193.6149" x2="140.7835" y2="1193.6149">
	<stop  offset="0" style="stop-color:#A1D185"/>
	<stop  offset="0.68" style="stop-color:#3CBFBB"/>
	<stop  offset="1" style="stop-color:#17BECB"/>
</linearGradient>
<circle class="st6" cx="72.7" cy="1193.6" r="68"/>
<linearGradient id="SVGID_8_" gradientUnits="userSpaceOnUse" x1="19.1119" y1="725.7379" x2="98.573" y2="725.7379">
	<stop  offset="0" style="stop-color:#A1D185"/>
	<stop  offset="0.68" style="stop-color:#3CBFBB"/>
	<stop  offset="1" style="stop-color:#17BECB"/>
</linearGradient>
<circle class="st7" cx="58.8" cy="725.7" r="39.7"/>
<linearGradient id="SVGID_9_" gradientUnits="userSpaceOnUse" x1="365.19" y1="209.9171" x2="444.6511" y2="209.9171">
	<stop  offset="0" style="stop-color:#A1D185"/>
	<stop  offset="0.68" style="stop-color:#3CBFBB"/>
	<stop  offset="1" style="stop-color:#17BECB"/>
</linearGradient>
<circle class="st8" cx="404.9" cy="209.9" r="39.7"/>
<linearGradient id="SVGID_10_" gradientUnits="userSpaceOnUse" x1="707.9589" y1="307.8055" x2="798.7761" y2="307.8055">
	<stop  offset="0" style="stop-color:#A1D185"/>
	<stop  offset="0.68" style="stop-color:#3CBFBB"/>
	<stop  offset="1" style="stop-color:#17BECB"/>
</linearGradient>
<circle class="st9" cx="753.4" cy="307.8" r="45.4"/>
<linearGradient id="SVGID_11_" gradientUnits="userSpaceOnUse" x1="422.1674" y1="1312.1316" x2="523.1284" y2="1312.1316">
	<stop  offset="0" style="stop-color:#A1D185"/>
	<stop  offset="0.68" style="stop-color:#3CBFBB"/>
	<stop  offset="1" style="stop-color:#17BECB"/>
</linearGradient>
<circle class="st10" cx="472.6" cy="1312.1" r="50.5"/>
<linearGradient id="SVGID_12_" gradientUnits="userSpaceOnUse" x1="704.3179" y1="1223.8607" x2="816.1375" y2="1223.8607">
	<stop  offset="0" style="stop-color:#A1D185"/>
	<stop  offset="0.68" style="stop-color:#3CBFBB"/>
	<stop  offset="1" style="stop-color:#17BECB"/>
</linearGradient>
<circle class="st11" cx="760.2" cy="1223.9" r="55.9"/>
<linearGradient id="SVGID_13_" gradientUnits="userSpaceOnUse" x1="697.4576" y1="879.5563" x2="809.2773" y2="879.5563">
	<stop  offset="0" style="stop-color:#A1D185"/>
	<stop  offset="0.68" style="stop-color:#3CBFBB"/>
	<stop  offset="1" style="stop-color:#17BECB"/>
</linearGradient>
<circle class="st12" cx="753.4" cy="879.6" r="55.9"/>
</svg>
