<?xml version="1.0" encoding="utf-8"?>
<!-- Generator: Adobe Illustrator 24.0.1, SVG Export Plug-In . SVG Version: 6.00 Build 0)  -->
<svg version="1.1" id="Layer_1" xmlns="http://www.w3.org/2000/svg" xmlns:xlink="http://www.w3.org/1999/xlink" x="0px" y="0px"
	 viewBox="0 0 70 70" style="enable-background:new 0 0 70 70;" xml:space="preserve">
<style type="text/css">
	.st0{fill-rule:evenodd;clip-rule:evenodd;fill:#FFC1A8;}
	.st1{fill:#DB8E6F;}
	.st2{fill:#FFFFFF;}
</style>
<path class="st0" d="M-83.5,60.5c3.4,4.5,8.1,8.3,13.7,10.7c17.3,7.4,37.2-0.6,44.6-17.8c7.4-17.3-0.6-37.2-17.8-44.6
	c-5.6-2.4-11.5-3.2-17.2-2.5l-0.9,2c5.7-0.8,11.7-0.2,17.3,2.3c16.3,7,23.8,25.9,16.8,42.1c-7,16.3-25.9,23.8-42.1,16.8
	c-5.7-2.4-10.3-6.3-13.6-11L-83.5,60.5z"/>
<g>
	<path class="st1" d="M-87.3,121.1h-31.3c-3.5,0-6.7-1.5-9-4c-2.3-2.6-3.4-6-3-9.4l4.8-39c0.1-0.6,0.5-1,1.1-1h43.5
		c0.6,0,1,0.4,1.1,1l4.8,39c0.4,3.4-0.6,6.8-3,9.4C-80.6,119.6-83.9,121.1-87.3,121.1z M-123.8,69.9l-4.7,38.1
		c-0.4,2.8,0.5,5.6,2.4,7.7c1.9,2.1,4.6,3.3,7.4,3.3h31.3c2.8,0,5.5-1.2,7.4-3.3c1.9-2.1,2.8-4.9,2.4-7.7l-4.7-38.1H-123.8z"/>
	<path class="st1" d="M-90.6,78.1c-0.6,0-1.1-0.5-1.1-1.1V66.3c0-6.2-5.1-11.2-11.3-11.2c-6.2,0-11.3,5-11.3,11.2V77
		c0,0.6-0.5,1.1-1.1,1.1c-0.6,0-1.1-0.5-1.1-1.1V66.3c0-7.4,6.1-13.4,13.5-13.4c7.4,0,13.5,6,13.5,13.4V77
		C-89.5,77.7-90,78.1-90.6,78.1z"/>
	<path class="st1" d="M-77.5,102.5H-128c-0.6,0-1.1-0.5-1.1-1.1c0-0.6,0.5-1.1,1.1-1.1h50.5c0.6,0,1.1,0.5,1.1,1.1
		C-76.4,102-76.9,102.5-77.5,102.5z"/>
</g>
<path class="st2" d="M55.5,38.6l-29,29c-2,2-5.2,2-7.2,0l-4.8-4.8c-2-2-2-5.2,0-7.2L35,35L14.5,14.5c-2-2-2-5.2,0-7.2l4.8-4.9
	c2-2,5.2-2,7.2,0l29,29C57.5,33.4,57.5,36.6,55.5,38.6z"/>
</svg>
