<?xml version="1.0" encoding="utf-8"?>
<!-- Generator: Adobe Illustrator 23.0.3, SVG Export Plug-In . SVG Version: 6.00 Build 0)  -->
<svg version="1.1" id="Layer_1" xmlns="http://www.w3.org/2000/svg" xmlns:xlink="http://www.w3.org/1999/xlink" x="0px" y="0px"
	 viewBox="0 0 25 25" style="enable-background:new 0 0 25 25;" xml:space="preserve">
<style type="text/css">
	.st0{fill:#57C1AA;}
</style>
<g>
	<path class="st0" d="M-27-0.4l1.4-1.4c-2-1.6-4.5-2.5-7.3-2.5c-6.6,0-12,5.4-12,12h2c0-5.5,4.5-10,10-10C-30.6-2.3-28.6-1.6-27-0.4
		z"/>
	<path class="st0" d="M-22.8,7.7h2c0-2.4-0.7-4.7-2-6.6l1.6-1.6L-22.6-2l-8.2,8.2c-0.6-0.3-1.3-0.6-2-0.6c-2.2,0-4,1.8-4,4
		s1.8,4,4,4c2.2,0,4-1.8,4-4c0-0.7-0.2-1.4-0.6-2l5.1-5.1C-23.3,4-22.8,5.8-22.8,7.7z M-32.8,11.7c-1.1,0-2-0.9-2-2s0.9-2,2-2
		c1.1,0,2,0.9,2,2S-31.7,11.7-32.8,11.7z"/>
</g>
<g>
	<g>
		<path class="st0" d="M20.5,23.5h-20v-18h20V23.5z M2.5,21.5h16v-14h-16V21.5z"/>
	</g>
	<g>
		<polygon class="st0" points="24.5,20.5 22.5,20.5 22.5,3.5 3.5,3.5 3.5,1.5 24.5,1.5 		"/>
	</g>
	<g>
		<rect x="5.5" y="11.5" class="st0" width="10" height="2"/>
	</g>
	<g>
		<rect x="4.5" y="15.5" class="st0" width="12" height="2"/>
	</g>
</g>
</svg>
