<?xml version="1.0" encoding="utf-8"?>
<!-- Generator: Adobe Illustrator 23.0.3, SVG Export Plug-In . SVG Version: 6.00 Build 0)  -->
<svg version="1.1" id="Layer_1" xmlns="http://www.w3.org/2000/svg" xmlns:xlink="http://www.w3.org/1999/xlink" x="0px" y="0px"
	 viewBox="0 0 25 25" style="enable-background:new 0 0 25 25;" xml:space="preserve">
<style type="text/css">
	.st0{fill:#57C1AA;}
</style>
<g>
	<path class="st0" d="M18.4,7.4L19.8,6c-2-1.6-4.5-2.5-7.3-2.5c-6.6,0-12,5.4-12,12h2c0-5.5,4.5-10,10-10
		C14.7,5.5,16.7,6.2,18.4,7.4z"/>
	<path class="st0" d="M22.5,15.5h2c0-2.4-0.7-4.7-2-6.6l1.6-1.6l-1.4-1.4l-8.2,8.2c-0.6-0.3-1.3-0.6-2-0.6c-2.2,0-4,1.8-4,4
		s1.8,4,4,4c2.2,0,4-1.8,4-4c0-0.7-0.2-1.4-0.6-2l5.1-5.1C22,11.9,22.5,13.6,22.5,15.5z M12.5,19.5c-1.1,0-2-0.9-2-2s0.9-2,2-2
		c1.1,0,2,0.9,2,2S13.6,19.5,12.5,19.5z"/>
</g>
</svg>
