<?xml version="1.0" encoding="utf-8"?>
<!-- Generator: Adobe Illustrator 23.0.3, SVG Export Plug-In . SVG Version: 6.00 Build 0)  -->
<svg version="1.1" id="Layer_1" xmlns="http://www.w3.org/2000/svg" xmlns:xlink="http://www.w3.org/1999/xlink" x="0px" y="0px"
	 viewBox="0 0 48 48" style="enable-background:new 0 0 48 48;" xml:space="preserve">
<style type="text/css">
	.st0{fill:#FFFFFF;}
</style>
<title>ic_fluent_delete_48_regular</title>
<desc>Created with Sketch.</desc>
<g>
	<g id="ic_fluent_delete_48_regular">
		<path class="st0" d="M24,7.3c3.1,0,5.6,2.5,5.7,5.5l0,0.2H37c0.7,0,1.3,0.6,1.3,1.3c0,0.6-0.5,1.2-1.1,1.2l-0.1,0h-1.1l-1.7,22.6
			C34,40.3,32.2,42,30,42H18c-2.2,0-4.1-1.7-4.2-3.9l-1.7-22.6H11c-0.6,0-1.2-0.5-1.2-1.1l0-0.1c0-0.6,0.5-1.2,1.1-1.2l0.1,0h7.3
			C18.3,9.8,20.8,7.3,24,7.3z M33.4,15.5H14.6l1.7,22.4c0.1,0.9,0.8,1.6,1.7,1.6H30c0.9,0,1.7-0.7,1.7-1.6L33.4,15.5z M27.3,20.8
			c0.6,0,1.2,0.5,1.2,1.1l0,0.1v11c0,0.7-0.6,1.3-1.3,1.3c-0.6,0-1.2-0.5-1.2-1.1l0-0.1V22C26,21.3,26.6,20.8,27.3,20.8z M20.8,20.8
			c0.6,0,1.2,0.5,1.2,1.1l0,0.1v11c0,0.7-0.6,1.3-1.3,1.3c-0.6,0-1.2-0.5-1.2-1.1l0-0.1V22C19.5,21.3,20.1,20.8,20.8,20.8z M24,9.8
			c-1.7,0-3.1,1.4-3.2,3.1l0,0.2h6.5C27.3,11.2,25.8,9.8,24,9.8z"/>
	</g>
</g>
</svg>
