<?xml version="1.0" encoding="utf-8"?>
<!-- Generator: Adobe Illustrator 24.0.1, SVG Export Plug-In . SVG Version: 6.00 Build 0)  -->
<svg version="1.1" id="Layer_1" xmlns="http://www.w3.org/2000/svg" xmlns:xlink="http://www.w3.org/1999/xlink" x="0px" y="0px"
	 viewBox="0 0 1473.7 1398.9" style="enable-background:new 0 0 1473.7 1398.9;" xml:space="preserve">
<style type="text/css">
	.st0{clip-path:url(#SVGID_2_);fill:#FFFFFF;}
	.st1{fill:#FFFFFF;}
	.st2{fill:#18BDC8;}
</style>
<g>
	<g>
		<defs>
			<path id="SVGID_1_" d="M1444.8,138.9c-18.9-13.4-41.2-17.4-64-11.6L1034.1,216v336.3l-66.7-46L904,591.2V249.4l1.4-0.4
				l-74.9,19.1c5.9,10.8,9.2,23.1,9.2,36.1c0,18.3-6.7,35.6-18.5,49.5v455.3c3.9,3.2,7.5,6.5,10.8,10.1c16,17.4,24.8,39.4,24.8,62.3
				c0,22.8-8.8,44.8-24.8,62.2c-3.3,3.7-7,7-10.8,10.2v194c4.2,2.9,8.1,6.1,11.8,9.6c18.7,17.9,29.2,41.8,29.2,66.7
				c0,25-10.5,48.9-29.2,66.8c-3.7,3.5-7.6,6.7-11.8,9.7v79.8l598.7-154.6c32.2-8.4,53.7-34.6,53.7-65.8V193.1
				C1473.7,171.1,1463.6,152.2,1444.8,138.9z M1301.9,32.2l-18.7-10.3c-13.3-7.3-28.4-8.1-42.3-1.8L789.8,223.7
				c-1.5,0.7-2.1,2.3-1.5,3.7c0.7,1.4,2.4,2.1,3.9,1.5L1301,42.3c2.2-0.8,3.6-2.7,3.8-4.8C1305,35.3,1303.9,33.3,1301.9,32.2z
				 M728.2,239.1l-563-193.2c-14.5-5-29.4-3.2-41.9,5.2l-17.7,11.7c-1.9,1.2-2.8,3.3-2.4,5.4c0.4,2.2,1.9,3.9,4.2,4.5l618.9,171.7
				c1.5,0.4,3.2-0.4,3.7-1.8C730.6,241.2,729.7,239.6,728.2,239.1z M730.7,221.3L246.3,6.2C232.5,0,217.4,0.7,204.1,8l-18.6,10.3
				c-2,1.1-3.2,3.1-2.9,5.3c0.2,2.2,1.6,4,3.8,4.8l542.1,198.2c1.5,0.6,3.2-0.1,3.9-1.4C732.9,223.6,732.2,222,730.7,221.3z
				 M1381.6,76.8L1364,65c-12.6-8.4-27.5-10.2-42-5.1L792.1,246.4c-1.5,0.6-2.3,2.1-1.8,3.5c0.5,1.4,2.2,2.2,3.7,1.8l124.7-35.1
				l461.1-130c2.3-0.6,3.9-2.3,4.3-4.5C1384.5,80.1,1383.5,78,1381.6,76.8z M801.5,1185.8c-6.6-6.4-14.9-11.2-24.2-14V931.9
				c8.3-3.4,15.6-8.5,21.4-14.7c8.9-9.6,14.2-22.1,14.2-35.7c0-13.7-5.4-26.2-14.2-35.8c-5.8-6.2-13.1-11.3-21.4-14.7V336.7
				c11.2-7.1,18.5-19,18.5-32.5c0-21.6-18.9-39.1-42.2-39.1c-13.1,0-24.7,5.5-32.5,14.2l-271.3-70.6c-2.9-19-20.5-33.5-41.7-33.5
				c-13.1,0-24.8,5.5-32.5,14.2l-242-63c-6.4-26.9-29.8-46.9-63-46.9c-33.2,0-64.6,26.8-64.6,60c0,24.8,16.3,46.2,39.5,55.3v497.2
				c-14.8,6.1-25,19.9-25,35.8c0,16,10.2,29.7,25,35.8v380.2c-25.3,8.6-43.3,31.2-43.3,57.6c0,34,29.6,61.5,66.1,61.5
				c24.2,0,45.4-12.2,56.9-30.3l299.7,77.3c4.6,21.4,24.9,37.6,49.4,37.6c14.7,0,27.9-5.9,37.2-15.3l243.9,63h9l12.9-3.3v-115.2
				c9.3-2.8,17.5-7.6,24.2-13.9c10.4-10,16.8-23.4,16.8-38.4C818.4,1209.3,811.9,1195.8,801.5,1185.8z M743.2,1358.9l-218.5-56.4
				v-0.1l-94.5-24.4c0,0,0,0,0,0.1l-295.7-76.2v-0.2l-54.6-14.1l0.2-46.8c0,0-0.1,0-0.2,0V763.5c0.4-0.2,0.9-0.4,1.3-0.6l0.2-70.3
				c-0.5-0.2-1-0.5-1.5-0.7V148.7l51.9,10.3c0,0,0-0.1,0-0.1l2.1,0.5l0.2,0.1l609.1,154V1358.9z"/>
		</defs>
		<use xlink:href="#SVGID_1_"  style="overflow:visible;fill-rule:evenodd;clip-rule:evenodd;fill:#FFFFFF;"/>
		<clipPath id="SVGID_2_">
			<use xlink:href="#SVGID_1_"  style="overflow:visible;"/>
		</clipPath>
		<rect x="2.2" class="st0" width="1471.4" height="1395"/>
	</g>
	<path class="st1" d="M617.5,1084.4c-0.1,4.6-4,8.2-8.6,8c-4.6-0.1-8.2-4-8-8.6c0.1-4.6,4-8.2,8.6-8
		C614,1076,617.6,1079.9,617.5,1084.4z M292.3,551.7c2.5-12.3,10.8-15.2,20-13.3c9.2,1.9,15.7,7.8,13.2,20
		c-2.5,12.3-11.9,20.8-21.1,18.9C295.2,575.5,289.8,564,292.3,551.7z M305,574.3c7.5,1.5,15.4-5.9,17.5-16.5c1-4.9,0.4-8.7-1.7-11.5
		c-1.9-2.4-4.9-4.1-9.2-5c-4.2-0.9-7.7-0.5-10.4,1c-3,1.7-5,5.1-6,9.9C293.1,562.9,297.5,572.8,305,574.3z M174.1,210.4
		c0.1-2.8,2.4-5,5.2-4.9c2.8,0.1,5,2.4,4.9,5.2c0,1.4-0.7,2.6-1.6,3.5l45.8,58.2c11.8-14.3,30.9-22.2,51-18.5
		c25.1,4.7,43.6,27,43.4,52.6c-0.1,9.2-2.4,17.8-6.4,25.2l292,243.7l1.3,3.1l-294-245.4l0,0c-10.9,18.7-32.8,30-56,25.7
		c-25.1-4.7-43.6-27-43.4-52.6c0.1-12.2,4.2-23.3,11-32.2l-46.2-58.7c-0.6,0.2-1.3,0.4-2,0.3C176.2,215.5,174,213.2,174.1,210.4z
		 M237.6,346.1c15.8,12.9,38,15.3,55.8,5.3c9.6-5.4,16.5-12.8,21-21.2l-0.1-0.2l0.1,0.1c10.5-19.9,6.9-45.2-10.4-61.2
		c-20.6-19.1-52.9-17.8-72,2.9C218.7,286.1,208.1,322,237.6,346.1z M297.7,610.3l-30-6c0,0,3.8-19,7.8-23.4
		c3.2-3.5,9.1-4.9,13.4-4.1c1.1,0.2,2,0.6,2.8,1.1c1.4,0.9,7.4,4.6,11.4,5.4c3.9,0.8,10.9-0.3,12.6-0.6c0.9-0.2,1.9-0.1,3,0.1
		c4.2,0.9,9.2,4.5,10.8,8.9c2,5.6-1.8,24.6-1.8,24.6L297.7,610.3z M271.4,601.8l26.9,5.4l26.9,5.4c1.3-7.4,2.4-17.1,1.4-19.9
		c-1.3-3.5-5.4-6.3-8.5-7c-0.7-0.1-1.4-0.2-1.9-0.1c-0.4,0.1-8.7,1.6-13.7,0.6c-5-1-12.1-5.7-12.4-5.9c-0.4-0.3-1-0.5-1.7-0.6
		c-3.1-0.6-8,0.4-10.5,3.1C275.8,585.2,273.1,594.5,271.4,601.8z M508.2,389.8l3.2-33.3c0.5-5.5,4.9-9.6,9.8-9.1l53.3,5.1
		c4.9,0.5,8.4,5.3,7.9,10.8l-3.2,33.3c-0.5,5.5-4.9,9.6-9.8,9.1l-53.3-5.1C511.2,400.1,507.7,395.3,508.2,389.8z M518.3,350.8
		l27.1,24.2l31.2-18.6c-0.7-0.5-1.5-0.8-2.4-0.9l-53.3-5.1C520,350.2,519.1,350.4,518.3,350.8z M516.4,397.6l53.3,5.1
		c3.2,0.3,6.2-2.6,6.5-6.4l3.2-33.3c0.2-1.6-0.2-3.1-0.8-4.4l-33.5,20l-29.1-26c-0.9,1.1-1.5,2.5-1.6,4.1l-3.2,33.3
		C510.8,394,513.1,397.3,516.4,397.6z M139.2,1020.4c0.4-8.6,5.7-11.4,12.1-11.1c6.4,0.3,11.5,3.6,11.1,12.2
		c-0.4,8.6-5.9,15.3-12.3,15C143.7,1036.2,138.9,1029,139.2,1020.4z M141.3,1020.5c-0.3,7.4,3.7,13.6,8.9,13.9
		c5.2,0.2,9.8-5.6,10.1-13c0.2-3.4-0.6-5.9-2.4-7.6c-1.5-1.5-3.8-2.3-6.7-2.4c-2.9-0.1-5.3,0.5-6.9,1.8
		C142.5,1014.7,141.5,1017.1,141.3,1020.5z M248.7,323.4l-10.3,8.6l1.6-16.5l2.2-23.6c0.4-3.9,3.8-6.8,7.8-6.4l42.6,4
		c3.9,0.4,6.7,3.8,6.4,7.7l-2.2,23.7c-0.4,3.9-3.8,6.8-7.7,6.4L248.7,323.4z M248,320.9l1,0.1l40.2,3.8c2.6,0.2,4.9-1.7,5.1-4.3
		l2.2-23.7c0.2-2.6-1.7-4.9-4.2-5.1l-42.6-4c-2.6-0.2-4.9,1.7-5.2,4.3l-2.2,23.6l-1,10.8l5.9-4.9L248,320.9z M644.9,1104.2
		l-55.8,15.7c-5.1,1.4-10.6-2.1-12.2-7.8l-9.8-34.9c-1.6-5.7,1.2-11.6,6.3-13l55.8-15.7c5.1-1.4,10.6,2.1,12.2,7.8l9.8,34.9
		C652.8,1096.9,650,1102.7,644.9,1104.2z M644,1101.1c3.4-1,5.2-5,4.1-9l-9.8-34.9c-1.1-4-4.8-6.5-8.2-5.6l-55.8,15.7
		c-3.4,1-5.2,5-4.1,9l9.8,34.9c1.1,4,4.8,6.5,8.2,5.6L644,1101.1z M478.8,370.2c3.5-36.6,36.1-63.6,72.7-60.1
		c36.6,3.5,63.6,36.1,60.1,72.7c-2,21.5-14.1,39.6-31.1,50.3l58.5,90.1l-2.8,1.8l-58.6-90.2c-11.4,6.4-24.8,9.5-38.8,8.2
		C502.3,439.5,475.4,406.8,478.8,370.2z M539.2,440c35,3.3,66.2-22.4,69.5-57.4c3.3-35-22.4-66.2-57.4-69.5
		c-35-3.3-66.2,22.4-69.5,57.4C478.5,405.5,504.2,436.7,539.2,440z M284.7,1083.2l22.9,1c2.1,0.1,3.7,2.1,3.6,4.4l-0.6,14.3
		c-0.1,2.4-1.9,4.2-4,4.1l-22.9-1c-2.1-0.1-3.7-2.1-3.6-4.4l0.6-14.3C280.8,1085,282.6,1083.1,284.7,1083.2z M309.5,1086.8
		l-13.9,9.3l-13-10.5c-0.4,0.5-0.6,1.1-0.6,1.8l-0.6,14.3c-0.1,1.7,1,3.1,2.4,3.1l22.9,1c1.4,0.1,2.6-1.2,2.7-2.9l0.6-14.3
		C309.9,1087.9,309.8,1087.3,309.5,1086.8z M307.5,1085.5l-22.9-1c-0.4,0-0.7,0.1-1.1,0.2l12.1,9.7l12.9-8.6
		C308.3,1085.6,307.9,1085.5,307.5,1085.5z M467.8,771.8c-10.2-0.5-18.1-9.1-17.6-19.3c0.5-10.2,9.1-18.1,19.3-17.6
		c10.2,0.5,18.1,9.1,17.6,19.3C486.7,764.3,478,772.3,467.8,771.8z M468,768.8c8.5,0.4,15.7-6.2,16.1-14.7
		c0.4-8.5-6.2-15.7-14.7-16.1c-8.5-0.4-15.7,6.2-16.1,14.7C452.9,761.2,459.5,768.4,468,768.8z M466.5,801.2l-22.7-24.8
		c-6.1-6.6-9.2-15.3-8.8-24.3c0.4-9,4.3-17.3,10.9-23.4c6.6-6.1,15.3-9.2,24.3-8.8c9,0.4,17.3,4.3,23.4,10.9s9.2,15.3,8.8,24.3
		c-0.4,9-4.3,17.3-10.9,23.4L466.5,801.2z M446,774.3l20.7,22.6l22.6-20.7c6-5.5,9.6-13.1,9.9-21.3c0.4-8.2-2.5-16-8-22.1
		c-5.5-6-13.1-9.6-21.3-9.9c-8.2-0.4-16,2.5-22.1,8c-6,5.5-9.6,13.1-9.9,21.3C437.7,760.4,440.5,768.2,446,774.3z M408,953
		l-1.2,27.9l-0.9,19.5l-10.7-11.7l-47.5-2.1c-4.6-0.2-8.2-4.1-8-8.7l1.2-28c0.2-4.6,4.1-8.2,8.7-8l50.3,2.2
		C404.7,944.5,408.2,948.4,408,953z M405.3,952.9c0.1-3.1-2.3-5.7-5.3-5.8l-50.3-2.2c-3.1-0.1-5.6,2.2-5.8,5.3l-1.2,28
		c-0.1,3.1,2.2,5.7,5.3,5.8l47.5,2.1l1.2,0.1l0.8,0.9l6.1,6.7l0.6-12.8L405.3,952.9z M257.9,805.4l-1.2,26.1
		c-0.2,4.3-3.5,7.7-7.3,7.5l-41.8-1.9c-3.8-0.2-6.8-3.8-6.6-8.1l1.2-26.1c0.2-4.3,3.5-7.7,7.3-7.5l41.8,1.9
		C255.1,797.5,258.1,801.1,257.9,805.4z M207.4,798.2l22.1,17.8l23.6-15.8c-0.6-0.4-1.2-0.6-1.9-0.6l-41.8-1.9
		C208.7,797.8,208,797.9,207.4,798.2z M255.6,805.3c0.1-1.3-0.3-2.4-0.8-3.4l-25.4,17l-23.8-19.1c-0.6,0.9-1.1,2-1.1,3.3l-1.2,26.1
		c-0.1,3,1.8,5.6,4.4,5.7l41.8,1.9c2.5,0.1,4.7-2.3,4.9-5.3L255.6,805.3z M168.7,1043.6c1.9,3.6,1.3,16.8,1.3,16.8l-20.9-0.9
		l-20.9-0.9c0,0,0.6-13.3,2.8-16.6c1.8-2.7,5.7-4.3,8.6-4.2c0.7,0,1.4,0.2,2,0.4c1,0.5,5.5,2.3,8.3,2.5c2.7,0.1,7.4-1.3,8.5-1.7
		c0.6-0.2,1.3-0.3,2-0.3C163.4,1038.8,167.1,1040.8,168.7,1043.6z M168,1058.2c0.1-5.2-0.2-11.8-1.2-13.6c-1.2-2.2-4.3-3.7-6.5-3.8
		c-0.5,0-0.9,0-1.3,0.1c-0.2,0.1-5.7,2-9.2,1.8c-3.5-0.2-8.8-2.5-9-2.6c-0.3-0.1-0.8-0.2-1.2-0.3c-2.2-0.1-5.4,1.1-6.8,3.2
		c-1.2,1.7-2,8.3-2.4,13.5l18.8,0.8L168,1058.2z M155.3,441.1c-0.7-4.7,2.6-9,7.3-9.7c4.7-0.7,9,2.6,9.7,7.3
		c0.4,2.5-0.4,4.9-1.9,6.7l89.6,79.6c15.5-13.1,36.5-19.2,57.9-14.9c37.1,7.5,61.2,43.8,53.7,80.9c-7.5,37.1-43.8,61.2-80.9,53.7
		c-37.1-7.5-61.2-43.8-53.7-80.9c3-14.6,10.4-27.2,20.6-36.7L168,447.3c-0.9,0.5-1.9,0.8-2.9,1C160.4,449,156,445.8,155.3,441.1z
		 M240.1,564.3c-7.2,35.5,15.9,70.1,51.3,77.3c35.5,7.2,70.1-15.9,77.3-51.3c7.2-35.5-15.9-70.1-51.3-77.3
		C281.9,505.8,247.2,528.9,240.1,564.3z M407.2,1166c0.3-6.9,6.2-12.3,13.1-12c6.9,0.3,12.3,6.2,12,13.1c-0.3,6.9-6.2,12.3-13.1,12
		C412.2,1178.8,406.8,1172.9,407.2,1166z M409.2,1166.1c-0.3,5.8,4.2,10.7,10,10.9c5.8,0.3,10.7-4.2,10.9-10
		c0.3-5.8-4.2-10.7-10-10.9C414.4,1155.9,409.5,1160.3,409.2,1166.1z M601.8,809.2l-1.6-1.5l28.1-17.4c-3.6-6.5-4.1-14.6-0.4-21.8
		c5.8-11.4,19.7-16,31.1-10.2c3.6,1.8,6.5,4.5,8.6,7.6l27.6-17.1l1.6,1.5l-28.1,17.4c3.6,6.5,4.1,14.6,0.4,21.8
		c-5.8,11.4-19.7,16-31.1,10.2c-3.6-1.8-6.5-4.5-8.6-7.6L601.8,809.2z M632.7,790.1c1.8,2.5,4.2,4.7,7.1,6.2c9.5,4.8,21.2,1,26-8.5
		c3-5.9,2.7-12.6-0.3-18L632.7,790.1z M631.6,788.3l32.8-20.3c-1.8-2.5-4.2-4.7-7.1-6.2c-9.5-4.8-21.2-1-26,8.5
		C628.3,776.2,628.7,782.9,631.6,788.3z M627.5,574.2l0.8-19.2c0.1-3.2,2.8-5.6,6-5.5l34.4,1.5c3.2,0.1,5.6,2.8,5.5,6l-0.8,19.1
		l-0.6,13.4l-7.3-8l-32.5-1.4C629.8,580,627.3,577.4,627.5,574.2z M629.4,574.3c-0.1,2.1,1.5,3.9,3.6,4l32.5,1.4l0.8,0l0.5,0.6
		l4.2,4.6l0.4-8.8l0.8-19.1c0.1-2.1-1.5-3.9-3.7-4l-34.4-1.5c-2.1-0.1-3.9,1.5-4,3.6L629.4,574.3z M402.8,1182.2
		c-4.1-4.5-6.3-10.4-6-16.5c0.3-6.1,2.9-11.7,7.4-15.9c4.5-4.1,10.4-6.3,16.5-6c6.1,0.3,11.7,2.9,15.9,7.4c4.1,4.5,6.3,10.4,6,16.5
		c-0.3,6.1-2.9,11.7-7.4,15.9l-16.9,15.4L402.8,1182.2z M398.9,1165.8c-0.2,5.6,1.7,10.9,5.4,15l14,15.3l15.4-14
		c4.1-3.8,6.5-8.9,6.7-14.4c0.2-5.6-1.7-10.9-5.4-15c-3.8-4.1-8.9-6.5-14.4-6.7c-5.6-0.2-10.9,1.7-15,5.4
		C401.5,1155.1,399.1,1160.3,398.9,1165.8z M703.3,1273.1c-0.2,5-4.3,8.8-9.3,8.7s-8.8-4.3-8.7-9.3c0.1-2.5,1.2-4.7,2.8-6.3
		l-67.4-110.8c-35.8,5.9-71.1-16-81.2-51.7c-5.2-18.5-2.7-37.4,5.7-53.2l-114.7-58.1c-8,16.7-23.1,29.3-41.3,33.9l24,97.8
		c2.7-0.4,5.4-0.5,8.2-0.4c25.7,1.1,45.6,23,44.5,48.6c-1.1,25.7-23,45.6-48.6,44.5c-25.7-1.1-45.6-23-44.5-48.6
		c1-22.1,17.2-39.9,38.1-43.8l-24-97.6c-5.1,1.1-10.4,1.6-15.9,1.3c-11.2-0.5-21.7-4-30.6-9.6l-28.6,53.1
		c7.7,5.4,12.6,14.5,12.2,24.6c-0.7,15.7-14.1,28-29.8,27.3c-15.7-0.7-28-14.1-27.3-29.8c0.7-15.7,14.1-28,29.8-27.3
		c5,0.2,9.7,1.7,13.7,4.2l28.6-53.1c-11.2-7.5-19.8-18.5-24.4-31.3l-119.6,36.5c1.5,4.9,2.2,10.2,2,15.7
		c-1.1,25.9-23.2,46-49.1,44.9c-25.9-1.1-46-23.2-44.9-49.1c1.1-25.9,23.2-46,49.1-44.9c19.6,0.9,35.9,13.7,42.2,31.2l119.6-36.5
		c-2.1-6.8-3.1-14-2.8-21.5c0.7-16,7.4-30.3,17.8-41L264,856.4c-9.8,8.6-22.8,13.6-36.8,13c-28.7-1.3-51.1-25.7-49.8-54.4
		c1.2-27.9,24.3-49.8,51.9-49.8l60.3-116.7l3.3,0.7l-60,116.2c28.2,1.8,50,26,48.7,54.3c-0.6,13.9-6.6,26.3-15.9,35.2l65,65.3
		c11.9-11.4,28.3-18.1,46-17.3c7.9,0.4,15.4,2.2,22.3,5.2l38.5-87.8l1.7,0.7c-24.3-11.5-40.6-36.7-39.3-65.2
		c1.7-37.8,33.8-67.2,71.6-65.6c7.1,0.3,13.9,1.7,20.2,4l125.1-102.5c-6-7.7-9.3-17.5-8.9-28c1-23.7,21.2-42.1,44.8-41
		c23.7,1,42.1,21.2,41,44.8c-1,23.7-21.2,42.1-44.8,41c-12.3-0.5-23.2-6.3-30.7-15L494.2,695.2c26.2,10.6,44.2,36.9,42.8,66.7
		c-1.7,37.8-33.8,67.2-71.6,65.6c-8.8-0.4-17.2-2.5-24.9-5.9L402,909.4c15.7,7.9,27.6,22.1,32.3,39.2l160.7-126.5l1.2,1.4
		c-17.4-20.5-21.9-50.2-9-75.6c17.1-33.8,58.5-47.3,92.3-30.2c33.8,17.1,47.3,58.5,30.2,92.3c-17.1,33.8-58.5,47.3-92.3,30.2
		c-7.9-4-14.7-9.4-20.2-15.6L435.5,952l-0.4-0.5c1.2,5.4,1.8,11,1.5,16.8c-0.3,7.5-2,14.6-4.7,21.2l114.9,58.2
		c9.1-15.6,24-27.8,42.7-33.1c9.3-2.6,18.7-3.3,27.8-2.2L563.6,944c-0.7,0.3-1.6,0.4-2.4,0.4c-3.3-0.1-6-2.9-5.8-6.2
		c0.1-3.3,2.9-6,6.2-5.8c3.3,0.1,6,2.9,5.8,6.2c-0.1,1.7-0.8,3.2-1.9,4.2l55.1,70.1c26.9,4.4,50.2,23.8,58.1,51.7
		c10.8,38.3-11.6,78.3-50,89.1c-1.5,0.4-3.1,0.8-4.6,1.1l66.8,109.7c1.2-0.5,2.4-0.7,3.8-0.7C699.6,1264,703.5,1268.1,703.3,1273.1z
		 M618.9,837.5c32.3,16.4,71.8,3.4,88.2-28.8c16.4-32.3,3.4-71.8-28.8-88.2c-32.3-16.4-71.8-3.4-88.2,28.8
		C573.7,781.6,586.6,821.2,618.9,837.5z M649,606.7c22.6,1,41.8-16.6,42.8-39.2c1-22.6-16.6-41.8-39.2-42.8
		c-22.6-1-41.8,16.6-42.8,39.2C608.8,586.5,626.4,605.7,649,606.7z M465.5,824.4c36.1,1.6,66.8-26.5,68.4-62.6
		c1.3-29.1-16.6-54.6-42.5-64.3l-0.4,0.3l-0.6-0.7c-6-2.2-12.5-3.5-19.2-3.8c-36.1-1.6-66.8,26.5-68.4,62.6
		C401.3,792.1,429.4,822.8,465.5,824.4z M279.3,819.5c1.2-27.5-20.1-50.8-47.6-52c-27.5-1.2-50.8,20.1-52,47.6
		c-1.2,27.5,20.1,50.8,47.6,52C254.7,868.3,278.1,846.9,279.3,819.5z M152.1,991.6c-24.8-1.1-45.8,18.1-46.9,42.9
		c-1.1,24.8,18.1,45.8,42.9,46.9c24.8,1.1,45.8-18.1,46.9-42.9C196.1,1013.7,176.9,992.7,152.1,991.6z M296.8,1067.9
		c-15-0.7-27.8,11-28.5,26c-0.7,15,11,27.8,26,28.5c15,0.7,27.8-11,28.5-26C323.5,1081.3,311.9,1068.6,296.8,1067.9z M375,1168.3
		c-1.1,24.5,18,45.4,42.5,46.5c24.5,1.1,45.4-18,46.5-42.5c1.1-24.5-18-45.4-42.5-46.5C397,1124.7,376.1,1143.8,375,1168.3z
		 M433.8,968.2c1.5-33-24.2-61.1-57.2-62.5c-33-1.5-61.1,24.2-62.5,57.2c-1.5,33,24.2,61.1,57.2,62.5
		C404.3,1026.9,432.4,1001.2,433.8,968.2z M627.9,1150.6c36.6-10.3,58-48.5,47.7-85.1c-10.3-36.6-48.5-58-85.1-47.7
		c-36.6,10.3-58,48.5-47.7,85.1C553,1139.5,591.2,1160.9,627.9,1150.6z"/>
	<g>
		<path class="st2" d="M1090.6,1202.3l22.5-5.8c1.1-0.3,2.1-0.1,3.1,0.4c1,0.6,1.7,1.5,1.9,2.6l0,0.1c0.3,1.1,0.1,2.2-0.5,3.2
			c-0.6,1-1.5,1.6-2.5,1.9l-22.5,5.8l3.7,14.4c0.5,1.8,1.5,3.2,3.2,4.2c1.6,1,3.4,1.2,5.2,0.7l15.9-4.1c1.1-0.3,2.1-0.1,3.2,0.5
			c1,0.6,1.7,1.5,1.9,2.6l0,0.1c0.3,1.1,0.1,2.2-0.5,3.2c-0.6,1-1.4,1.7-2.5,1.9l-15.9,4.1c-4.1,1.1-8,0.5-11.7-1.6s-6-5.3-7.1-9.4
			l-9.5-37c-1.1-4.1-0.5-8,1.6-11.7c2.2-3.7,5.3-6,9.4-7.1l15.9-4.1c1.1-0.3,2.1-0.1,3.2,0.5c1,0.6,1.6,1.4,1.9,2.5l0,0.1
			c0.3,1.1,0.1,2.2-0.5,3.2s-1.4,1.7-2.5,1.9l-15.9,4.1c-1.8,0.5-3.2,1.5-4.2,3.2c-1,1.6-1.2,3.4-0.7,5.2L1090.6,1202.3z"/>
		<path class="st2" d="M1159.7,1153.3c1.1-0.3,2.1-0.1,3.1,0.4c1,0.6,1.7,1.5,1.9,2.6l9.9,38.6c1.7,6.7,0.8,13-2.8,18.9
			s-8.6,9.8-15.3,11.5c-6.7,1.7-13,0.8-19-2.7s-9.8-8.6-11.5-15.3s-0.8-13,2.7-19s8.6-9.8,15.3-11.5c6.1-1.6,12-0.9,17.6,2
			l-5.2-20.3c-0.3-1.1-0.1-2.2,0.5-3.2c0.6-1,1.5-1.6,2.5-1.9L1159.7,1153.3z M1136.1,1192.7c-2.3,3.9-2.9,8.1-1.7,12.6
			c1.1,4.4,3.7,7.8,7.6,10.1c3.9,2.3,8.1,2.9,12.6,1.8c4.4-1.1,7.8-3.7,10.1-7.6c2.3-3.9,2.9-8.1,1.8-12.5
			c-1.1-4.4-3.7-7.8-7.6-10.2c-3.9-2.3-8.1-2.9-12.5-1.8C1141.9,1186.2,1138.5,1188.7,1136.1,1192.7z"/>
		<path class="st2" d="M1198.1,1162.8c1.1-0.3,2.2-0.1,3.2,0.5c1,0.6,1.6,1.5,1.9,2.6l0,0.1c0.3,1.1,0.1,2.2-0.4,3.1
			c-0.6,1-1.5,1.7-2.6,1.9l-2.5,0.7c-2.8,0.7-4.9,2.3-6.4,4.8c-1.4,2.5-1.8,5.1-1.1,7.9l6.8,26.2c0.3,1.1,0.1,2.2-0.5,3.2
			c-0.6,1-1.4,1.7-2.5,1.9l-0.1,0c-1.1,0.3-2.1,0.1-3.2-0.5c-1-0.6-1.6-1.4-1.9-2.5l-6.8-26.2c-1.2-5.1-0.6-9.8,2-14.3
			c2.6-4.5,6.5-7.4,11.6-8.7L1198.1,1162.8z"/>
		<path class="st2" d="M1222.6,1186.8c0.8,3.3,2.7,5.8,5.6,7.5c2.9,1.7,6.1,2.1,9.4,1.3c3.3-0.8,5.8-2.7,7.5-5.6
			c1.7-2.9,2.1-6,1.3-9.3l-6.3-24.3c-0.3-1.1-0.1-2.2,0.5-3.2c0.6-1,1.5-1.7,2.6-1.9l0.1,0c1.1-0.3,2.2-0.1,3.2,0.5
			c1,0.6,1.7,1.5,1.9,2.6l6.3,24.3c1.4,5.5,0.7,10.8-2.2,15.7c-2.9,5-7.2,8.1-12.7,9.6c-5.6,1.4-10.8,0.7-15.8-2.2
			c-5-2.9-8.1-7.2-9.6-12.7l-6.3-24.3c-0.3-1.1-0.1-2.2,0.5-3.2c0.6-1,1.4-1.7,2.5-1.9l0.1,0c1.1-0.3,2.1-0.1,3.2,0.5
			c1,0.6,1.7,1.5,1.9,2.6L1222.6,1186.8z"/>
		<path class="st2" d="M1277.5,1213.6c-1.1,0.3-2.1,0.1-3.2-0.5s-1.7-1.4-1.9-2.5l-9.9-38.6c-1.7-6.7-0.8-13,2.7-18.9
			c3.5-5.9,8.6-9.7,15.3-11.5c6.7-1.7,13-0.8,19,2.7c6,3.5,9.8,8.6,11.5,15.3s0.8,13-2.7,19c-3.5,6-8.6,9.8-15.3,11.5
			c-6.1,1.6-12,0.9-17.6-2l5.2,20.3c0.3,1.1,0.1,2.1-0.5,3.2c-0.6,1-1.4,1.7-2.5,1.9L1277.5,1213.6z M1300.9,1174.2
			c2.3-3.9,2.9-8.1,1.8-12.5c-1.1-4.4-3.7-7.8-7.6-10.2c-3.9-2.3-8.1-2.9-12.5-1.7c-4.4,1.1-7.8,3.7-10.2,7.6
			c-2.3,3.9-2.9,8.1-1.7,12.6c1.1,4.4,3.7,7.8,7.6,10.1c3.9,2.3,8.1,2.9,12.6,1.8C1295.3,1180.7,1298.6,1178.1,1300.9,1174.2z"/>
		<path class="st2" d="M1311.8,1114.1c1.1-0.3,2.1-0.1,3.1,0.4c1,0.6,1.7,1.5,1.9,2.6l3.7,14.2l8-2.1c1.1-0.3,2.1-0.1,3.2,0.5
			c1,0.6,1.7,1.5,1.9,2.6l0,0.1c0.3,1.1,0.1,2.2-0.5,3.2c-0.6,1-1.4,1.7-2.5,1.9l-8,2.1l7.1,27.7c0.3,1.2,1,2.1,2.1,2.8
			c1.1,0.6,2.2,0.8,3.5,0.5l3.6-0.9c1.1-0.3,2.1-0.1,3.2,0.5c1,0.6,1.7,1.5,1.9,2.6l0,0.1c0.3,1.1,0.1,2.2-0.5,3.2
			c-0.6,1-1.4,1.7-2.5,1.9l-3.6,0.9c-3.5,0.9-6.8,0.4-9.9-1.4c-3.1-1.9-5.1-4.5-6-8l-12.9-50.1c-0.3-1.1-0.1-2.2,0.5-3.2
			c0.6-1,1.5-1.6,2.5-1.9L1311.8,1114.1z"/>
		<path class="st2" d="M1368.4,1128.2c0.2-0.4,0.1-0.6-0.4-0.5l-22.8,5.9c-1.1,0.3-2.2,0.1-3.2-0.5c-1-0.6-1.6-1.4-1.9-2.5l0-0.1
			c-0.3-1.1-0.1-2.1,0.5-3.2c0.6-1,1.4-1.6,2.5-1.9l26.7-6.9c3.1-0.9,5.6,0,7.5,2.5c2,2.6,2.1,5.2,0.5,7.9
			c-7.3,13.1-13.8,24.7-19.3,34.6c0,0,0,0.1-0.2,0.3c-0.3,0.4-0.1,0.6,0.4,0.5l0.3-0.1l24.5-6.3c1.1-0.3,2.2-0.2,3.1,0.4
			c1,0.6,1.7,1.5,1.9,2.6l0,0.1c0.3,1.1,0.1,2.2-0.5,3.2c-0.6,1-1.4,1.6-2.5,1.9l-28.7,7.4c-3.1,0.9-5.6,0.1-7.5-2.5
			c-1.9-2.5-2.1-5.2-0.5-7.9c2.1-3.8,5.3-9.5,9.7-17.3c4.3-7.6,7.5-13.4,9.7-17.3C1368.2,1128.5,1368.2,1128.4,1368.4,1128.2z"/>
	</g>
	<circle class="st1" cx="75" cy="143.9" r="68"/>
	<circle class="st1" cx="75" cy="1195.6" r="68"/>
	<circle class="st1" cx="61.1" cy="727.7" r="39.7"/>
	<circle class="st1" cx="407.1" cy="211.9" r="39.7"/>
	<circle class="st1" cx="755.6" cy="309.8" r="45.4"/>
	<circle class="st1" cx="474.9" cy="1314.1" r="50.5"/>
	<circle class="st1" cx="762.5" cy="1225.8" r="55.9"/>
	<circle class="st1" cx="755.6" cy="881.5" r="55.9"/>
</g>
</svg>
