<?xml version="1.0" encoding="utf-8"?>
<!-- Generator: Adobe Illustrator 24.0.1, SVG Export Plug-In . SVG Version: 6.00 Build 0)  -->
<svg version="1.1" id="Layer_1" xmlns="http://www.w3.org/2000/svg" xmlns:xlink="http://www.w3.org/1999/xlink" x="0px" y="0px"
	 viewBox="0 0 222 68" style="enable-background:new 0 0 222 68;" xml:space="preserve">
<style type="text/css">
	.st0{fill:url(#SVGID_1_);}
	.st1{clip-path:url(#SVGID_3_);fill:url(#SVGID_4_);}
	.st2{fill:url(#SVGID_5_);stroke:url(#SVGID_6_);stroke-width:4;stroke-miterlimit:10;}
	.st3{fill:#FFFFFF;}
	.st4{font-family:'TypoRoundRegularDemo';}
	.st5{font-size:4.4231px;}
	.st6{fill:url(#SVGID_7_);}
	.st7{fill:url(#SVGID_8_);}
	.st8{fill:url(#SVGID_9_);}
	.st9{fill:url(#SVGID_10_);}
	.st10{fill:url(#SVGID_11_);}
</style>
<linearGradient id="SVGID_1_" gradientUnits="userSpaceOnUse" x1="85.9336" y1="34.7989" x2="220.529" y2="34.7989">
	<stop  offset="0" style="stop-color:#A1D185"/>
	<stop  offset="0.68" style="stop-color:#3CBFBB"/>
	<stop  offset="1" style="stop-color:#17BECB"/>
</linearGradient>
<path class="st0" d="M89.2,33.2h8.9c0.4,0,0.8,0.2,1.1,0.5c0.3,0.3,0.5,0.7,0.5,1.1v0c0,0.4-0.2,0.8-0.5,1.1
	c-0.3,0.3-0.7,0.5-1.1,0.5h-8.9v5.7c0,0.7,0.3,1.3,0.8,1.9c0.5,0.5,1.1,0.8,1.9,0.8h6.3c0.4,0,0.8,0.2,1.1,0.5
	c0.3,0.3,0.5,0.7,0.5,1.1v0c0,0.4-0.2,0.8-0.5,1.1c-0.3,0.3-0.7,0.5-1.1,0.5h-6.3c-1.6,0-3-0.6-4.2-1.7c-1.1-1.1-1.7-2.5-1.7-4.2
	V27.5c0-1.6,0.6-3,1.7-4.2c1.1-1.1,2.5-1.7,4.2-1.7h6.3c0.4,0,0.8,0.2,1.1,0.5c0.3,0.3,0.5,0.7,0.5,1.1v0c0,0.4-0.2,0.8-0.5,1.1
	c-0.3,0.3-0.7,0.5-1.1,0.5h-6.3c-0.7,0-1.3,0.3-1.9,0.8c-0.5,0.5-0.8,1.1-0.8,1.9V33.2z M105.8,43.6c0,0.3,0.1,0.6,0.3,0.8
	c0.2,0.2,0.5,0.3,0.8,0.3h2.7c2.8,0,5.1-1,7-2.9c1.9-1.9,2.9-4.3,2.9-7c0-2.8-1-5.1-2.9-7c-1.9-1.9-4.3-2.9-7-2.9H107
	c-0.3,0-0.6,0.1-0.8,0.4c-0.2,0.2-0.3,0.5-0.3,0.8V43.6z M109.7,21.6c3.6,0,6.8,1.3,9.3,3.9c2.6,2.6,3.9,5.7,3.9,9.3
	c0,3.6-1.3,6.8-3.9,9.3c-2.6,2.6-5.7,3.9-9.3,3.9H107c-1.2,0-2.3-0.4-3.1-1.3c-0.9-0.9-1.3-1.9-1.3-3.1V26c0-1.2,0.4-2.3,1.3-3.1
	c0.9-0.9,1.9-1.3,3.1-1.3H109.7z M134.5,34.9c1.4,0,2.6-0.5,3.6-1.5c1-1,1.5-2.2,1.5-3.6c0-1.4-0.5-2.6-1.5-3.6
	c-1-1-2.2-1.5-3.6-1.5h-2c-1,0-1.8,0.3-2.4,0.9c-0.5,0.5-0.8,1-0.9,1.6c0,0.2-0.1,0.4-0.1,0.7v6.8H134.5z M139.5,43.1
	c0-1.4-0.5-2.6-1.5-3.6c-0.9-0.9-2-1.4-3.2-1.5h-5.7v8.3c0,0.4-0.2,0.8-0.5,1.1c-0.3,0.3-0.7,0.5-1.1,0.5h0c-0.4,0-0.8-0.2-1.1-0.5
	c-0.3-0.3-0.5-0.7-0.5-1.1V27.9c0-1.7,0.6-3.2,1.8-4.5c1.2-1.2,2.7-1.9,4.5-1.9h2.3c2.3,0,4.2,0.8,5.8,2.4c1.6,1.6,2.4,3.6,2.4,5.9
	c0,2.3-0.8,4.2-2.4,5.8c-0.3,0.3-0.6,0.6-0.9,0.8c0.3,0.2,0.6,0.5,0.9,0.8c1.6,1.6,2.4,3.6,2.4,5.8v3.3c0,0.4-0.2,0.8-0.5,1.1
	c-0.3,0.3-0.7,0.5-1.1,0.5h0c-0.4,0-0.8-0.2-1.1-0.5c-0.3-0.3-0.5-0.7-0.5-1.1V43.1z M162.9,23.2c0-0.4-0.2-0.8-0.5-1.1
	c-0.3-0.3-0.7-0.5-1.1-0.5h-0.1c-0.4,0-0.8,0.2-1.1,0.5c-0.3,0.3-0.5,0.7-0.5,1.1v16.2c0,1.5-0.5,2.7-1.5,3.8c-1,1-2.3,1.5-3.8,1.5
	c-1.5,0-2.7-0.5-3.8-1.5c-1-1-1.5-2.3-1.5-3.8V23.2c0-0.4-0.2-0.8-0.5-1.1c-0.3-0.3-0.7-0.5-1.1-0.5h-0.1c-0.4,0-0.8,0.2-1.1,0.5
	c-0.3,0.3-0.5,0.7-0.5,1.1v16.2c0,2.4,0.8,4.4,2.5,6c1.7,1.7,3.7,2.5,6,2.5c2.4,0,4.4-0.8,6.1-2.5c1.7-1.7,2.5-3.7,2.5-6V23.2z
	 M170,36h5.6c1.5,0,2.8-0.5,3.9-1.6c1.1-1.1,1.6-2.4,1.6-3.9s-0.5-2.8-1.6-3.9c-1.1-1.1-2.4-1.6-3.9-1.6c-1.5,0-2.8,0.5-3.9,1.6
	c-1.1,1.1-1.6,2.4-1.6,3.9V36z M170,39.2v7.2c0,0.4-0.2,0.8-0.5,1.1c-0.3,0.3-0.7,0.5-1.1,0.5h-0.1c-0.4,0-0.8-0.2-1.1-0.5
	c-0.3-0.3-0.5-0.7-0.5-1.1v-16c0-2.4,0.9-4.5,2.6-6.2c1.7-1.7,3.8-2.6,6.2-2.6c2.4,0,4.5,0.9,6.2,2.6c1.7,1.7,2.6,3.8,2.6,6.2
	c0,2.4-0.9,4.5-2.6,6.2c-1.7,1.7-3.8,2.6-6.2,2.6H170z M202.4,23.2c0,0.4-0.2,0.8-0.5,1.1c-0.3,0.3-0.7,0.5-1.1,0.5H196v21.6
	c0,0.4-0.2,0.8-0.5,1.1c-0.3,0.3-0.7,0.5-1.1,0.5h0c-0.4,0-0.8-0.2-1.1-0.5c-0.3-0.3-0.5-0.7-0.5-1.1V24.8h-4.8
	c-0.4,0-0.8-0.2-1.1-0.5c-0.3-0.3-0.5-0.7-0.5-1.1v0c0-0.4,0.2-0.8,0.5-1.1c0.3-0.3,0.7-0.5,1.1-0.5h12.9c0.4,0,0.8,0.2,1.1,0.5
	C202.2,22.4,202.4,22.8,202.4,23.2L202.4,23.2z M204.6,23.2c0-0.4,0.2-0.8,0.5-1.1c0.3-0.3,0.7-0.5,1.1-0.5H217c0.9,0,1.6,0.3,2.3,1
	c0.6,0.6,0.9,1.4,0.9,2.3c0,0.7-0.2,1.3-0.5,1.8L207,44.7h11.9c0.4,0,0.8,0.2,1.1,0.5c0.3,0.3,0.5,0.7,0.5,1.1v0
	c0,0.4-0.2,0.8-0.5,1.1c-0.3,0.3-0.7,0.5-1.1,0.5h-12.2c-0.8-0.1-1.5-0.4-2.1-1.1c-0.6-0.6-0.8-1.4-0.8-2.2c0-0.6,0.1-1.1,0.4-1.6
	L217,24.8h-10.8c-0.4,0-0.8-0.2-1.1-0.5C204.7,24.1,204.6,23.7,204.6,23.2L204.6,23.2z"/>
<g>
	<g>
		<g>
			<defs>
				<path id="SVGID_2_" d="M68.9,7.7C68,7,67,6.8,65.9,7.1l-16.3,4.2v15.8L46.4,25l-3,4V12.9l0.1,0L40,13.7c0.3,0.5,0.4,1.1,0.4,1.7
					c0,0.9-0.3,1.7-0.9,2.3v21.4c0.2,0.2,0.4,0.3,0.5,0.5c0.8,0.8,1.2,1.9,1.2,2.9c0,1.1-0.4,2.1-1.2,2.9c-0.2,0.2-0.3,0.3-0.5,0.5
					v9.1c0.2,0.1,0.4,0.3,0.6,0.5c0.9,0.8,1.4,2,1.4,3.1c0,1.2-0.5,2.3-1.4,3.1c-0.2,0.2-0.4,0.3-0.6,0.5v3.8l28.2-7.3
					c1.5-0.4,2.5-1.6,2.5-3.1V10.2C70.3,9.2,69.8,8.3,68.9,7.7z M62.2,2.6l-0.9-0.5c-0.6-0.3-1.3-0.4-2-0.1l-21.2,9.6
					c-0.1,0-0.1,0.1-0.1,0.2c0,0.1,0.1,0.1,0.2,0.1l23.9-8.8c0.1,0,0.2-0.1,0.2-0.2C62.3,2.8,62.3,2.7,62.2,2.6z M35.2,12.4L8.7,3.3
					C8,3,7.3,3.1,6.7,3.5L5.9,4.1C5.8,4.1,5.7,4.2,5.8,4.3c0,0.1,0.1,0.2,0.2,0.2l29.1,8.1c0.1,0,0.2,0,0.2-0.1
					C35.3,12.5,35.2,12.4,35.2,12.4z M35.3,11.5L12.5,1.4c-0.7-0.3-1.4-0.3-2,0.1L9.6,2C9.5,2,9.5,2.1,9.5,2.2
					c0,0.1,0.1,0.2,0.2,0.2l25.5,9.3c0.1,0,0.2,0,0.2-0.1C35.4,11.6,35.4,11.6,35.3,11.5z M65.9,4.7l-0.8-0.6
					c-0.6-0.4-1.3-0.5-2-0.2l-24.9,8.8c-0.1,0-0.1,0.1-0.1,0.2s0.1,0.1,0.2,0.1l5.9-1.7l21.7-6.1C66,5.2,66,5.1,66,5
					C66.1,4.9,66,4.8,65.9,4.7z M38.6,56.9c-0.3-0.3-0.7-0.5-1.1-0.7V45c0.4-0.2,0.7-0.4,1-0.7c0.4-0.5,0.7-1,0.7-1.7
					c0-0.6-0.3-1.2-0.7-1.7c-0.3-0.3-0.6-0.5-1-0.7V17c0.5-0.3,0.9-0.9,0.9-1.5c0-1-0.9-1.8-2-1.8c-0.6,0-1.2,0.3-1.5,0.7l-12.8-3.3
					c-0.1-0.9-1-1.6-2-1.6c-0.6,0-1.2,0.3-1.5,0.7l-11.4-3c-0.3-1.3-1.4-2.2-3-2.2s-3,1.3-3,2.8c0,1.2,0.8,2.2,1.9,2.6v23.4
					c-0.7,0.3-1.2,0.9-1.2,1.7c0,0.8,0.5,1.4,1.2,1.7V55c-1.2,0.4-2,1.5-2,2.7c0,1.6,1.4,2.9,3.1,2.9c1.1,0,2.1-0.6,2.7-1.4
					l14.1,3.6c0.2,1,1.2,1.8,2.3,1.8c0.7,0,1.3-0.3,1.8-0.7l11.5,3h0.4l0.6-0.2v-5.4c0.4-0.1,0.8-0.4,1.1-0.7
					c0.5-0.5,0.8-1.1,0.8-1.8C39.4,58,39.1,57.4,38.6,56.9z M35.9,65.1l-10.3-2.7v0l-4.4-1.1c0,0,0,0,0,0L7.2,57.7v0L4.7,57l0-2.2
					c0,0,0,0,0,0V37.1c0,0,0,0,0.1,0l0-3.3c0,0,0,0-0.1,0V8.1l2.4,0.5v0l0.1,0l0,0l28.7,7.2V65.1z"/>
			</defs>
			<clipPath id="SVGID_3_">
				<use xlink:href="#SVGID_2_"  style="overflow:visible;"/>
			</clipPath>
			
				<linearGradient id="SVGID_4_" gradientUnits="userSpaceOnUse" x1="4.2057" y1="7.212" x2="67.4381" y2="61.0034" gradientTransform="matrix(1 0 0 -1 0 67.896)">
				<stop  offset="0" style="stop-color:#A1D185"/>
				<stop  offset="0.68" style="stop-color:#3CBFBB"/>
				<stop  offset="1" style="stop-color:#17BECB"/>
			</linearGradient>
			<rect x="1" y="1.1" class="st1" width="69.3" height="65.7"/>
		</g>
	</g>
	
		<linearGradient id="SVGID_5_" gradientUnits="userSpaceOnUse" x1="3.9132" y1="55.8303" x2="32.5215" y2="55.8303" gradientTransform="matrix(0.9995 3.260875e-02 3.260875e-02 -0.9995 0.4754 91.3006)">
		<stop  offset="0" style="stop-color:#A1D185"/>
		<stop  offset="0.68" style="stop-color:#3CBFBB"/>
		<stop  offset="1" style="stop-color:#17BECB"/>
	</linearGradient>
	
		<linearGradient id="SVGID_6_" gradientUnits="userSpaceOnUse" x1="1.9132" y1="56.9488" x2="34.6943" y2="56.9488" gradientTransform="matrix(0.9995 3.260875e-02 3.260875e-02 -0.9995 0.4754 91.3006)">
		<stop  offset="0" style="stop-color:#A1D185"/>
		<stop  offset="0.68" style="stop-color:#3CBFBB"/>
		<stop  offset="1" style="stop-color:#17BECB"/>
	</linearGradient>
	<path class="st2" d="M30,52.2c0,0.2-0.2,0.4-0.4,0.4c-0.2,0-0.4-0.2-0.4-0.4c0-0.2,0.2-0.4,0.4-0.4C29.8,51.8,30,52,30,52.2z
		 M14.7,27.1c0.1-0.6,0.5-0.7,0.9-0.6c0.4,0.1,0.7,0.4,0.6,0.9c-0.1,0.6-0.6,1-1,0.9C14.8,28.2,14.5,27.7,14.7,27.1z M15.3,28.2
		c0.4,0.1,0.7-0.3,0.8-0.8c0-0.2,0-0.4-0.1-0.5c-0.1-0.1-0.2-0.2-0.4-0.2c-0.2,0-0.4,0-0.5,0c-0.1,0.1-0.2,0.2-0.3,0.5
		C14.7,27.6,14.9,28.1,15.3,28.2z M9.1,11c0-0.1,0.1-0.2,0.2-0.2c0.1,0,0.2,0.1,0.2,0.2c0,0.1,0,0.1-0.1,0.2l2.2,2.7
		c0.6-0.7,1.5-1,2.4-0.9c1.2,0.2,2.1,1.3,2,2.5c0,0.4-0.1,0.8-0.3,1.2l13.7,11.5l0.1,0.1L15.8,16.8l0,0c-0.5,0.9-1.5,1.4-2.6,1.2
		c-1.2-0.2-2.1-1.3-2-2.5c0-0.6,0.2-1.1,0.5-1.5l-2.2-2.8c0,0-0.1,0-0.1,0C9.2,11.3,9.1,11.2,9.1,11z M12.1,17.4
		c0.7,0.6,1.8,0.7,2.6,0.2c0.5-0.3,0.8-0.6,1-1l0,0l0,0c0.5-0.9,0.3-2.1-0.5-2.9c-1-0.9-2.5-0.8-3.4,0.1
		C11.2,14.6,10.7,16.3,12.1,17.4z M14.9,29.8l-1.4-0.3c0,0,0.2-0.9,0.4-1.1c0.2-0.2,0.4-0.2,0.6-0.2c0.1,0,0.1,0,0.1,0.1
		c0.1,0,0.3,0.2,0.5,0.3c0.2,0,0.5,0,0.6,0c0,0,0.1,0,0.1,0c0.2,0,0.4,0.2,0.5,0.4c0.1,0.3-0.1,1.2-0.1,1.2L14.9,29.8z M13.7,29.5
		l1.3,0.3l1.3,0.3c0.1-0.3,0.1-0.8,0.1-0.9c-0.1-0.2-0.3-0.3-0.4-0.3c0,0-0.1,0-0.1,0c0,0-0.4,0.1-0.6,0c-0.2,0-0.6-0.3-0.6-0.3
		c0,0,0,0-0.1,0c-0.1,0-0.4,0-0.5,0.1C13.9,28.7,13.8,29.1,13.7,29.5z M24.8,19.5l0.2-1.6c0-0.3,0.2-0.5,0.5-0.4l2.5,0.2
		c0.2,0,0.4,0.2,0.4,0.5l-0.2,1.6c0,0.3-0.2,0.5-0.5,0.4L25.2,20C25,20,24.8,19.7,24.8,19.5z M25.3,17.6l1.3,1.1l1.5-0.9
		c0,0-0.1,0-0.1,0l-2.5-0.2C25.4,17.6,25.3,17.6,25.3,17.6z M25.2,19.8l2.5,0.2c0.2,0,0.3-0.1,0.3-0.3l0.2-1.6c0-0.1,0-0.1,0-0.2
		l-1.6,0.9l-1.4-1.2c0,0.1-0.1,0.1-0.1,0.2L25,19.5C24.9,19.7,25,19.8,25.2,19.8z M7.4,49.2c0-0.4,0.3-0.5,0.6-0.5
		c0.3,0,0.5,0.2,0.5,0.6c0,0.4-0.3,0.7-0.6,0.7C7.7,49.9,7.4,49.6,7.4,49.2z M7.5,49.2c0,0.3,0.2,0.6,0.4,0.7c0.2,0,0.5-0.3,0.5-0.6
		c0-0.2,0-0.3-0.1-0.4c-0.1-0.1-0.2-0.1-0.3-0.1c-0.1,0-0.2,0-0.3,0.1C7.6,48.9,7.6,49,7.5,49.2z M12.6,16.3l-0.5,0.4l0.1-0.8
		l0.1-1.1c0-0.2,0.2-0.3,0.4-0.3l2,0.2c0.2,0,0.3,0.2,0.3,0.4l-0.1,1.1c0,0.2-0.2,0.3-0.4,0.3L12.6,16.3z M12.6,16.2L12.6,16.2
		l1.9,0.2c0.1,0,0.2-0.1,0.2-0.2l0.1-1.1c0-0.1-0.1-0.2-0.2-0.2l-2-0.2c-0.1,0-0.2,0.1-0.2,0.2L12.3,16l0,0.5L12.6,16.2L12.6,16.2z
		 M31.3,53.1l-2.6,0.7c-0.2,0.1-0.5-0.1-0.6-0.4l-0.5-1.6c-0.1-0.3,0.1-0.5,0.3-0.6l2.6-0.7c0.2-0.1,0.5,0.1,0.6,0.4l0.5,1.6
		C31.6,52.8,31.5,53,31.3,53.1z M31.2,52.9c0.2,0,0.2-0.2,0.2-0.4l-0.5-1.6c-0.1-0.2-0.2-0.3-0.4-0.3l-2.6,0.7
		c-0.2,0-0.2,0.2-0.2,0.4l0.5,1.6c0.1,0.2,0.2,0.3,0.4,0.3L31.2,52.9z M23.4,18.5c0.2-1.7,1.7-3,3.4-2.8s3,1.7,2.8,3.4
		c-0.1,1-0.7,1.9-1.5,2.4l2.8,4.2l-0.1,0.1l-2.8-4.2c-0.5,0.3-1.2,0.4-1.8,0.4C24.5,21.8,23.3,20.3,23.4,18.5z M26.3,21.8
		c1.6,0.2,3.1-1.1,3.3-2.7c0.2-1.6-1.1-3.1-2.7-3.3c-1.6-0.2-3.1,1.1-3.3,2.7C23.4,20.2,24.6,21.7,26.3,21.8z M14.3,52.1l1.1,0
		c0.1,0,0.2,0.1,0.2,0.2l0,0.7c0,0.1-0.1,0.2-0.2,0.2l-1.1,0c-0.1,0-0.2-0.1-0.2-0.2l0-0.7C14.1,52.2,14.2,52.1,14.3,52.1z
		 M15.5,52.3l-0.7,0.4l-0.6-0.5c0,0,0,0.1,0,0.1l0,0.7c0,0.1,0,0.1,0.1,0.1l1.1,0c0.1,0,0.1-0.1,0.1-0.1L15.5,52.3
		C15.5,52.3,15.5,52.3,15.5,52.3z M15.4,52.2l-1.1,0c0,0,0,0-0.1,0l0.6,0.5L15.4,52.2C15.4,52.2,15.4,52.2,15.4,52.2z M22.9,37.4
		c-0.5,0-0.9-0.4-0.8-0.9c0-0.5,0.4-0.9,0.9-0.8c0.5,0,0.9,0.4,0.8,0.9C23.8,37.1,23.4,37.5,22.9,37.4z M22.9,37.3
		c0.4,0,0.7-0.3,0.8-0.7c0-0.4-0.3-0.7-0.7-0.8c-0.4,0-0.7,0.3-0.8,0.7C22.2,36.9,22.5,37.3,22.9,37.3z M22.9,38.8l-1.1-1.2
		c-0.3-0.3-0.4-0.7-0.4-1.1s0.2-0.8,0.5-1.1S22.6,35,23,35s0.8,0.2,1.1,0.5c0.3,0.3,0.4,0.7,0.4,1.1c0,0.4-0.2,0.8-0.5,1.1
		L22.9,38.8z M21.9,37.6l1,1.1l1.1-1c0.3-0.3,0.5-0.6,0.5-1c0-0.4-0.1-0.8-0.4-1c-0.3-0.3-0.6-0.5-1-0.5c-0.4,0-0.8,0.1-1,0.4
		c-0.3,0.3-0.5,0.6-0.5,1C21.5,36.9,21.6,37.3,21.9,37.6z M20.1,46L20,47.3l0,0.9l-0.5-0.6l-2.2-0.1c-0.2,0-0.4-0.2-0.4-0.4l0.1-1.3
		c0-0.2,0.2-0.4,0.4-0.4l2.4,0.1C19.9,45.6,20.1,45.8,20.1,46z M20,46c0-0.1-0.1-0.3-0.2-0.3l-2.4-0.1c-0.1,0-0.3,0.1-0.3,0.2
		L17,47.2c0,0.1,0.1,0.3,0.2,0.3l2.2,0.1l0.1,0l0,0l0.3,0.3l0-0.6L20,46z M13,39L13,40.3c0,0.2-0.2,0.4-0.3,0.4l-2-0.1
		c-0.2,0-0.3-0.2-0.3-0.4l0.1-1.2c0-0.2,0.2-0.4,0.3-0.4l2,0.1C12.9,38.7,13,38.8,13,39z M10.7,38.7l1,0.8l1.1-0.7c0,0-0.1,0-0.1,0
		L10.7,38.7C10.7,38.7,10.7,38.7,10.7,38.7z M12.9,39c0-0.1,0-0.1,0-0.2l-1.2,0.8l-1.1-0.9c0,0-0.1,0.1-0.1,0.2l-0.1,1.2
		c0,0.1,0.1,0.3,0.2,0.3l2,0.1c0.1,0,0.2-0.1,0.2-0.2L12.9,39z M8.8,50.2C8.9,50.4,8.9,51,8.9,51l-1,0l-1,0c0,0,0-0.6,0.1-0.8
		C7.1,50,7.3,50,7.5,50c0,0,0.1,0,0.1,0c0,0,0.3,0.1,0.4,0.1c0.1,0,0.3-0.1,0.4-0.1c0,0,0.1,0,0.1,0C8.6,50,8.8,50.1,8.8,50.2z
		 M8.8,50.9c0-0.2,0-0.6-0.1-0.6c-0.1-0.1-0.2-0.2-0.3-0.2c0,0,0,0-0.1,0c0,0-0.3,0.1-0.4,0.1c-0.2,0-0.4-0.1-0.4-0.1c0,0,0,0-0.1,0
		c-0.1,0-0.3,0.1-0.3,0.2c-0.1,0.1-0.1,0.4-0.1,0.6l0.9,0L8.8,50.9z M8.2,21.9c0-0.2,0.1-0.4,0.3-0.5S9,21.5,9,21.8
		c0,0.1,0,0.2-0.1,0.3l4.2,3.7c0.7-0.6,1.7-0.9,2.7-0.7c1.7,0.4,2.9,2.1,2.5,3.8s-2.1,2.9-3.8,2.5s-2.9-2.1-2.5-3.8
		c0.1-0.7,0.5-1.3,1-1.7l-4.2-3.8c0,0-0.1,0-0.1,0C8.4,22.3,8.2,22.1,8.2,21.9z M12.2,27.7c-0.3,1.7,0.7,3.3,2.4,3.6
		c1.7,0.3,3.3-0.7,3.6-2.4c0.3-1.7-0.7-3.3-2.4-3.6C14.2,24.9,12.5,26,12.2,27.7z M20.1,56c0-0.3,0.3-0.6,0.6-0.6
		c0.3,0,0.6,0.3,0.6,0.6c0,0.3-0.3,0.6-0.6,0.6C20.3,56.6,20,56.3,20.1,56z M20.2,56c0,0.3,0.2,0.5,0.5,0.5c0.3,0,0.5-0.2,0.5-0.5
		c0-0.3-0.2-0.5-0.5-0.5C20.4,55.5,20.2,55.7,20.2,56z M29.2,39.2L29.2,39.2l1.2-0.9c-0.2-0.3-0.2-0.7,0-1c0.3-0.5,0.9-0.8,1.5-0.5
		c0.2,0.1,0.3,0.2,0.4,0.4l1.3-0.8l0.1,0.1l-1.3,0.8c0.2,0.3,0.2,0.7,0,1c-0.3,0.5-0.9,0.8-1.5,0.5c-0.2-0.1-0.3-0.2-0.4-0.4
		L29.2,39.2z M30.7,38.3c0.1,0.1,0.2,0.2,0.3,0.3c0.4,0.2,1,0,1.2-0.4c0.1-0.3,0.1-0.6,0-0.8L30.7,38.3z M30.6,38.2l1.5-1
		C32.1,37.2,32,37,31.8,37c-0.4-0.2-1,0-1.2,0.4C30.5,37.7,30.5,38,30.6,38.2z M30.4,28.1l0-0.9c0-0.2,0.1-0.3,0.3-0.3l1.6,0.1
		c0.2,0,0.3,0.1,0.3,0.3l0,0.9l0,0.6l-0.3-0.4l-1.5-0.1C30.5,28.4,30.4,28.3,30.4,28.1z M30.5,28.2c0,0.1,0.1,0.2,0.2,0.2l1.5,0.1h0
		l0,0l0.2,0.2l0-0.4l0-0.9c0-0.1-0.1-0.2-0.2-0.2l-1.6-0.1c-0.1,0-0.2,0.1-0.2,0.2L30.5,28.2z M19.9,56.8c-0.2-0.2-0.3-0.5-0.3-0.8
		c0-0.3,0.1-0.6,0.3-0.7c0.2-0.2,0.5-0.3,0.8-0.3c0.3,0,0.6,0.1,0.7,0.3c0.2,0.2,0.3,0.5,0.3,0.8c0,0.3-0.1,0.6-0.3,0.7l-0.8,0.7
		L19.9,56.8z M19.7,56c0,0.3,0.1,0.5,0.3,0.7l0.7,0.7l0.7-0.7c0.2-0.2,0.3-0.4,0.3-0.7c0-0.3-0.1-0.5-0.3-0.7
		c-0.2-0.2-0.4-0.3-0.7-0.3c-0.3,0-0.5,0.1-0.7,0.3C19.8,55.5,19.7,55.7,19.7,56z M34,61c0,0.2-0.2,0.4-0.4,0.4
		c-0.2,0-0.4-0.2-0.4-0.4c0-0.1,0.1-0.2,0.1-0.3l-3.2-5.2c-1.7,0.3-3.3-0.8-3.8-2.4c-0.2-0.9-0.1-1.8,0.3-2.5l-5.4-2.7
		c-0.4,0.8-1.1,1.4-1.9,1.6l1.1,4.6c0.1,0,0.3,0,0.4,0c1.2,0.1,2.1,1.1,2.1,2.3c-0.1,1.2-1.1,2.1-2.3,2.1c-1.2-0.1-2.1-1.1-2.1-2.3
		c0-1,0.8-1.9,1.8-2.1l-1.1-4.6c-0.2,0.1-0.5,0.1-0.7,0.1c-0.5,0-1-0.2-1.4-0.5l-1.3,2.5c0.4,0.3,0.6,0.7,0.6,1.2
		c0,0.7-0.7,1.3-1.4,1.3c-0.7,0-1.3-0.7-1.3-1.4c0-0.7,0.7-1.3,1.4-1.3c0.2,0,0.5,0.1,0.6,0.2l1.3-2.5c-0.5-0.4-0.9-0.9-1.1-1.5
		l-5.6,1.7c0.1,0.2,0.1,0.5,0.1,0.7c-0.1,1.2-1.1,2.2-2.3,2.1c-1.2-0.1-2.2-1.1-2.1-2.3s1.1-2.2,2.3-2.1c0.9,0,1.7,0.6,2,1.5
		l5.6-1.7c-0.1-0.3-0.1-0.7-0.1-1c0-0.8,0.3-1.4,0.8-1.9l-3.1-3.1c-0.5,0.4-1.1,0.7-1.7,0.6c-1.4-0.1-2.4-1.2-2.3-2.6
		c0.1-1.3,1.1-2.3,2.4-2.3l2.8-5.5l0.2,0l-2.8,5.5c1.3,0.1,2.4,1.2,2.3,2.6c0,0.7-0.3,1.2-0.7,1.7l3.1,3.1c0.6-0.5,1.3-0.9,2.2-0.8
		c0.4,0,0.7,0.1,1,0.2l1.8-4.1l0.1,0c-1.1-0.5-1.9-1.7-1.8-3.1c0.1-1.8,1.6-3.2,3.4-3.1c0.3,0,0.7,0.1,1,0.2l5.9-4.8
		c-0.3-0.4-0.4-0.8-0.4-1.3c0-1.1,1-2,2.1-1.9c1.1,0,2,1,1.9,2.1c0,1.1-1,2-2.1,1.9c-0.6,0-1.1-0.3-1.4-0.7l-5.8,4.8
		c1.2,0.5,2.1,1.7,2,3.1c-0.1,1.8-1.6,3.2-3.4,3.1c-0.4,0-0.8-0.1-1.2-0.3l-1.8,4.1c0.7,0.4,1.3,1,1.5,1.8l7.6-6l0.1,0.1
		c-0.8-1-1-2.4-0.4-3.6c0.8-1.6,2.8-2.2,4.3-1.4c1.6,0.8,2.2,2.8,1.4,4.3s-2.8,2.2-4.3,1.4c-0.4-0.2-0.7-0.4-1-0.7l-7.6,6l0,0
		c0.1,0.3,0.1,0.5,0.1,0.8c0,0.4-0.1,0.7-0.2,1l5.4,2.7c0.4-0.7,1.1-1.3,2-1.6c0.4-0.1,0.9-0.2,1.3-0.1l-2.5-3.2c0,0-0.1,0-0.1,0
		c-0.2,0-0.3-0.1-0.3-0.3c0-0.2,0.1-0.3,0.3-0.3c0.2,0,0.3,0.1,0.3,0.3c0,0.1,0,0.2-0.1,0.2l2.6,3.3c1.3,0.2,2.4,1.1,2.7,2.4
		c0.5,1.8-0.5,3.7-2.4,4.2c-0.1,0-0.1,0-0.2,0.1l3.1,5.2c0.1,0,0.1,0,0.2,0C33.8,60.6,34,60.8,34,61z M30,40.5
		c1.5,0.8,3.4,0.2,4.2-1.4c0.8-1.5,0.2-3.4-1.4-4.2c-1.5-0.8-3.4-0.2-4.2,1.4C27.9,37.9,28.5,39.8,30,40.5z M31.4,29.7
		c1.1,0,2-0.8,2-1.8c0-1.1-0.8-2-1.8-2c-1.1,0-2,0.8-2,1.8C29.6,28.7,30.4,29.6,31.4,29.7z M22.8,39.9C24.5,40,26,38.7,26,37
		c0.1-1.4-0.8-2.6-2-3l0,0l0,0c-0.3-0.1-0.6-0.2-0.9-0.2c-1.7-0.1-3.1,1.2-3.2,2.9C19.8,38.4,21.1,39.8,22.8,39.9z M14,39.7
		c0.1-1.3-0.9-2.4-2.2-2.4c-1.3-0.1-2.4,0.9-2.4,2.2c-0.1,1.3,0.9,2.4,2.2,2.4C12.9,42,14,41,14,39.7z M8.1,47.8
		c-1.2-0.1-2.2,0.9-2.2,2C5.8,51,6.7,52,7.9,52c1.2,0.1,2.2-0.9,2.2-2C10.1,48.8,9.2,47.8,8.1,47.8z M14.9,51.4
		c-0.7,0-1.3,0.5-1.3,1.2c0,0.7,0.5,1.3,1.2,1.3c0.7,0,1.3-0.5,1.3-1.2C16.1,52,15.6,51.4,14.9,51.4z M18.5,56.1
		c-0.1,1.2,0.8,2.1,2,2.2c1.2,0.1,2.1-0.8,2.2-2c0.1-1.2-0.8-2.1-2-2.2C19.6,54.1,18.6,55,18.5,56.1z M21.3,46.7
		c0.1-1.6-1.1-2.9-2.7-2.9c-1.6-0.1-2.9,1.1-2.9,2.7c-0.1,1.6,1.1,2.9,2.7,2.9C19.9,49.5,21.2,48.2,21.3,46.7z M30.4,55.3
		c1.7-0.5,2.7-2.3,2.2-4c-0.5-1.7-2.3-2.7-4-2.2c-1.7,0.5-2.7,2.3-2.2,4S28.7,55.8,30.4,55.3z"/>
	<text transform="matrix(0.9683 -0.2496 0.2496 0.9683 52.0713 59.6389)" class="st3 st4 st5">Edruptz</text>
	
		<linearGradient id="SVGID_7_" gradientUnits="userSpaceOnUse" x1="1.2212" y1="10.4987" x2="7.6231" y2="10.4987" gradientTransform="matrix(1 0 0 -1 0 67.896)">
		<stop  offset="0" style="stop-color:#A1D185"/>
		<stop  offset="0.68" style="stop-color:#3CBFBB"/>
		<stop  offset="1" style="stop-color:#17BECB"/>
	</linearGradient>
	<circle class="st6" cx="4.4" cy="57.4" r="3.2"/>
	
		<linearGradient id="SVGID_8_" gradientUnits="userSpaceOnUse" x1="1.8991" y1="32.5237" x2="5.6366" y2="32.5237" gradientTransform="matrix(1 0 0 -1 0 67.896)">
		<stop  offset="0" style="stop-color:#A1D185"/>
		<stop  offset="0.68" style="stop-color:#3CBFBB"/>
		<stop  offset="1" style="stop-color:#17BECB"/>
	</linearGradient>
	<circle class="st7" cx="3.8" cy="35.4" r="1.9"/>
	
		<linearGradient id="SVGID_9_" gradientUnits="userSpaceOnUse" x1="18.1908" y1="56.8035" x2="21.9283" y2="56.8035" gradientTransform="matrix(1 0 0 -1 0 67.896)">
		<stop  offset="0" style="stop-color:#A1D185"/>
		<stop  offset="0.68" style="stop-color:#3CBFBB"/>
		<stop  offset="1" style="stop-color:#17BECB"/>
	</linearGradient>
	<circle class="st8" cx="20.1" cy="11.1" r="1.9"/>
	
		<linearGradient id="SVGID_10_" gradientUnits="userSpaceOnUse" x1="34.3271" y1="52.1952" x2="38.6012" y2="52.1952" gradientTransform="matrix(1 0 0 -1 0 67.896)">
		<stop  offset="0" style="stop-color:#A1D185"/>
		<stop  offset="0.68" style="stop-color:#3CBFBB"/>
		<stop  offset="1" style="stop-color:#17BECB"/>
	</linearGradient>
	<circle class="st9" cx="36.5" cy="15.7" r="2.1"/>
	
		<linearGradient id="SVGID_11_" gradientUnits="userSpaceOnUse" x1="33.8328" y1="25.2793" x2="39.0955" y2="25.2793" gradientTransform="matrix(1 0 0 -1 0 67.896)">
		<stop  offset="0" style="stop-color:#A1D185"/>
		<stop  offset="0.68" style="stop-color:#3CBFBB"/>
		<stop  offset="1" style="stop-color:#17BECB"/>
	</linearGradient>
	<circle class="st10" cx="36.5" cy="42.6" r="2.6"/>
</g>
</svg>
