<?xml version="1.0" encoding="utf-8"?>
<!-- Generator: Adobe Illustrator 23.0.3, SVG Export Plug-In . SVG Version: 6.00 Build 0)  -->
<svg version="1.1" id="Layer_1" xmlns="http://www.w3.org/2000/svg" xmlns:xlink="http://www.w3.org/1999/xlink" x="0px" y="0px"
	 viewBox="0 0 70 70" style="enable-background:new 0 0 70 70;" xml:space="preserve">
<style type="text/css">
	.st0{fill:url(#SVGID_1_);}
	.st1{fill:#F7941D;}
</style>
<linearGradient id="SVGID_1_" gradientUnits="userSpaceOnUse" x1="4.2615" y1="41.4958" x2="65.7385" y2="41.4958">
	<stop  offset="0" style="stop-color:#A1D185"/>
	<stop  offset="0.68" style="stop-color:#3CBFBB"/>
	<stop  offset="1" style="stop-color:#17BECB"/>
</linearGradient>
<path class="st0" d="M53.2,14.2c-2-1.5-4.8-1-6.3,1c-1.5,2-1,4.8,1,6.3c5.6,4.1,8.9,10.7,8.9,17.6c0,12-9.8,21.8-21.8,21.8
	C23,60.7,13.2,51,13.2,39c0-6.9,3.3-13.5,8.9-17.6c2-1.5,2.4-4.3,1-6.3c-1.5-2-4.3-2.4-6.3-1C9,19.9,4.3,29.2,4.3,39
	c0,17,13.8,30.7,30.7,30.7c17,0,30.7-13.8,30.7-30.7C65.7,29.2,61,19.9,53.2,14.2z"/>
<path class="st1" d="M35,33.3c2.5,0,4.6-2.1,4.6-4.6V4.9c0-2.5-2.1-4.6-4.6-4.6c-2.5,0-4.6,2.1-4.6,4.6v23.8
	C30.4,31.2,32.5,33.3,35,33.3z"/>
</svg>
