<?xml version="1.0" encoding="utf-8"?>
<!-- Generator: Adobe Illustrator 23.0.3, SVG Export Plug-In . SVG Version: 6.00 Build 0)  -->
<svg version="1.1" id="Layer_1" xmlns="http://www.w3.org/2000/svg" xmlns:xlink="http://www.w3.org/1999/xlink" x="0px" y="0px"
	 viewBox="0 0 70 70" style="enable-background:new 0 0 70 70;" xml:space="preserve">
<style type="text/css">
	.st0{fill:none;}
	.st1{fill:url(#SVGID_1_);}
	.st2{fill:#E6E9ED;}
	.st3{fill:#FFD05B;}
	.st4{fill:#F05540;}
	.st5{fill:#F3705A;}
	.st6{fill:#FFFFFF;}
	.st7{fill:#F8B54C;}
	.st8{fill:#334A5E;}
</style>
<rect x="0.1" y="0.1" class="st0" width="70" height="70"/>
<linearGradient id="SVGID_1_" gradientUnits="userSpaceOnUse" x1="-17.4" y1="35.1" x2="87.6" y2="35.1">
	<stop  offset="0" style="stop-color:#3ABEBA"/>
	<stop  offset="1" style="stop-color:#13BCCA"/>
</linearGradient>
<path class="st1" d="M35.1,87.6c29,0,52.5-23.5,52.5-52.5S64-17.4,35.1-17.4S-17.4,6.1-17.4,35.1S6.1,87.6,35.1,87.6z"/>
<path class="st2" d="M35.2,50.2c-0.1,0-0.1,0.1-0.2,0.1c-0.1,0-0.1-0.1-0.2-0.1H35.2z"/>
<ellipse class="st2" cx="35" cy="77.8" rx="37.9" ry="33.2"/>
<path class="st2" d="M63.2,55.8C56.9,64.4,46.6,70.1,35,70.1S13.2,64.5,6.8,55.8c5-5.3,11.7-8.1,17.3-9.5c-0.5,4,1.6,9.4,1.7,9.3
	c2.1-4.9,9.2-5.3,9.2-5.3s7.1,0.4,9.3,5.3c0.1,0.1,2.1-5.2,1.7-9.3C51.5,47.7,58.3,50.5,63.2,55.8z"/>
<path class="st3" d="M43.7,42.5c0,0.7-0.4,4.5-8.5,7.6h-0.4c-8-3.1-8.5-6.9-8.5-7.6c0.1-1.4,0.4-2.9,1-4.2c2.2,2.5,4.9,4.1,7.7,4.1
	s5.5-1.6,7.7-4.1C43.3,39.7,43.7,41.1,43.7,42.5z"/>
<path class="st4" d="M39.8,51.4L38,54.9h-6l-1.8-3.5c2.4-1,4.8-1.2,4.8-1.2S37.4,50.4,39.8,51.4z"/>
<path class="st5" d="M30.1,71.1c1.6,0.2,3.3,0.4,5,0.4c1.7,0,3.3-0.1,5-0.4l-2-16.1H32L30.1,71.1z"/>
<path class="st6" d="M43.7,42.4c0,0,0.4,4.4-8.7,7.8c0,0,7.1,0.4,9.3,5.3C44.3,55.7,48.5,45,43.7,42.4z"/>
<path class="st6" d="M26.3,42.4c-4.7,2.6-0.6,13.2-0.5,13.1c2.1-4.9,9.3-5.3,9.3-5.3C25.9,46.8,26.3,42.4,26.3,42.4z"/>
<path class="st7" d="M43.2,39.5c-2.3,2.5-5.1,4.1-8.2,4.1s-5.8-1.6-8.2-4.1c0.1-0.4,0.3-0.8,0.4-1.1c2.2,2.5,4.9,4.1,7.7,4.1
	c2.9,0,5.5-1.6,7.7-4.1C42.9,38.7,43.1,39.1,43.2,39.5z"/>
<path class="st3" d="M50.1,31c-1.2,1.9-2.9,3.1-4.2,2.9c-2.6,4.9-6.5,8.5-10.8,8.5s-8.2-3.7-10.8-8.5C22.9,34.1,21.1,33,20,31
	c-1.4-2.3-1.4-4.7-0.1-5.6c0.3-0.2,0.7-0.3,1-0.2c0.9,2.3,2.1,3.6,2.1,3.6c-1.3-7,3.9-7.8,3-14.5c0,0,3.3,7.2,12.6,2.1l-0.7,1.4
	c13-2.9,8.7,12.4,8.5,12.8c1.5-1.9,2.4-3.7,3-5.5c0.2,0,0.5,0.1,0.7,0.2C51.5,26.2,51.4,28.8,50.1,31z"/>
<path class="st8" d="M42.5,7.1c1-0.1,2.8,0.8,2.8,0.8C40.6,2.6,32.9,6,32.9,6c2.6-2.2,4.9-2,4.9-2C26.8,2.4,25,8.9,25,8.9
	c-0.5-0.8-0.5-1.9-0.4-2.4c-0.8,1.3,0.1,4,0.1,4c-0.8-1.9-3.5-1.6-3.5-1.6c2.3,0.4,2.7,1.8,2.7,1.8C18,12.8,19,18.8,19,18.8l1.4-1.7
	C18.7,23.7,23,28.8,23,28.8c-1.3-7,3.9-7.8,3-14.5c0,0,3.3,7.2,12.6,2.1l-0.7,1.4c13.2-3,8.5,12.8,8.5,12.8c4.7-6,4-12.1,4-12.1
	l0.6,2.2C52.5,10.9,42.5,7.1,42.5,7.1z"/>
</svg>
