<?xml version="1.0" encoding="utf-8"?>
<!-- Generator: Adobe Illustrator 23.0.3, SVG Export Plug-In . SVG Version: 6.00 Build 0)  -->
<svg version="1.1" id="Layer_1" xmlns="http://www.w3.org/2000/svg" xmlns:xlink="http://www.w3.org/1999/xlink" x="0px" y="0px"
	 viewBox="0 0 216.4 148.9" style="enable-background:new 0 0 216.4 148.9;" xml:space="preserve">
<style type="text/css">
	.st0{fill:#414042;}
</style>
<path class="st0" d="M78,27.7v53.8c0,0,12,3.2,25.8,13.7c0,0-20.8-9.5-35.7-11.1V25.3C68.1,25.3,73.4,24.8,78,27.7z"/>
<path class="st0" d="M129.9,27.7v53.8c0,0-12,3.2-25.8,13.7c0,0,20.8-9.5,35.7-11.1V25.3C139.7,25.3,134.5,24.8,129.9,27.7z"/>
<path class="st0" d="M55,31.5c0,0,4.1-1,7.5,1.4v53.8c0,0,25.4,3.5,40.2,8.4c0,0-24.1-5.6-47.7-5V31.5z"/>
<path class="st0" d="M152.8,31.5c0,0-4.1-1-7.5,1.4v53.8c0,0-25.4,3.5-40.2,8.4c0,0,24.1-5.6,47.7-5V31.5z"/>
<g>
	<path class="st0" d="M0,110.6h11.5c0.1,0.4,0.1,0.8,0.1,1.3c0,0.2,0,0.4,0,0.7c0,0.2,0,0.4-0.1,0.6H3v6h6.8c0,0.2,0.1,0.4,0.1,0.6
		c0,0.2,0,0.4,0,0.7c0,0.2,0,0.4,0,0.7c0,0.2,0,0.4-0.1,0.6H3v7.2h8.8c0.1,0.4,0.1,0.8,0.1,1.3c0,0.2,0,0.4,0,0.7
		c0,0.2,0,0.4-0.1,0.6H0V110.6z"/>
	<path class="st0" d="M24.7,110.2c0.2,0,0.5-0.1,0.7-0.1c0.3,0,0.5,0,0.7,0c0.2,0,0.5,0,0.7,0c0.3,0,0.5,0,0.7,0.1v21
		c-0.7,0.2-1.6,0.4-2.5,0.5c-0.9,0.1-1.9,0.2-3.1,0.2c-1,0-2-0.1-3-0.4c-0.9-0.3-1.8-0.7-2.5-1.3c-0.7-0.6-1.3-1.4-1.7-2.3
		c-0.4-1-0.6-2.1-0.6-3.5c0-1.2,0.2-2.3,0.5-3.3c0.4-1,0.9-1.8,1.5-2.6c0.7-0.7,1.5-1.3,2.4-1.6c0.9-0.4,1.9-0.6,3.1-0.6
		c0.5,0,1,0,1.5,0.1c0.5,0.1,1,0.2,1.4,0.3V110.2z M24.7,119.2c-0.4-0.2-0.8-0.3-1.3-0.3c-0.4-0.1-0.9-0.1-1.5-0.1
		c-0.8,0-1.5,0.1-2.1,0.4c-0.6,0.3-1.1,0.7-1.4,1.2c-0.4,0.5-0.7,1.1-0.8,1.8c-0.2,0.7-0.3,1.4-0.3,2.3c0,1.8,0.5,3.2,1.3,4
		c0.9,0.8,2,1.2,3.5,1.2c0.5,0,1,0,1.4-0.1c0.4,0,0.8-0.1,1.1-0.2V119.2z"/>
	<path class="st0" d="M32.1,116.6c0.2,0,0.5-0.1,0.7-0.1c0.3,0,0.5,0,0.7,0c0.2,0,0.5,0,0.7,0c0.3,0,0.5,0,0.7,0.1v8.2
		c0,0.9,0.1,1.7,0.3,2.3c0.2,0.6,0.4,1.1,0.8,1.4c0.3,0.3,0.8,0.6,1.3,0.7c0.5,0.1,1.1,0.2,1.7,0.2c1,0,1.8-0.1,2.5-0.3v-12.6
		c0.2,0,0.5-0.1,0.7-0.1c0.3,0,0.5,0,0.7,0c0.2,0,0.5,0,0.7,0c0.3,0,0.5,0,0.7,0.1v14.5c-0.7,0.2-1.5,0.4-2.4,0.6
		c-0.9,0.2-1.9,0.3-2.9,0.3c-1,0-1.9-0.1-2.7-0.2c-0.8-0.2-1.6-0.5-2.2-1c-0.6-0.5-1.1-1.2-1.5-2.1c-0.4-0.9-0.6-2.1-0.6-3.6V116.6z
		"/>
	<path class="st0" d="M58.9,129c0.2,0.3,0.3,0.6,0.4,1c0.1,0.4,0.2,0.8,0.2,1.3c-1.1,0.4-2.5,0.7-3.9,0.7c-2.5,0-4.4-0.7-5.6-2.1
		c-1.3-1.4-1.9-3.3-1.9-5.7c0-1.1,0.2-2.1,0.5-3.1c0.3-1,0.8-1.8,1.4-2.5c0.6-0.7,1.4-1.3,2.3-1.7c0.9-0.4,2-0.6,3.2-0.6
		c0.8,0,1.5,0,2.2,0.1c0.6,0.1,1.2,0.3,1.8,0.5c0,0.3,0,0.7-0.1,1.2c-0.1,0.4-0.2,0.8-0.4,1.2c-1-0.3-2-0.5-3.3-0.5
		c-1.5,0-2.6,0.5-3.4,1.5c-0.7,1-1.1,2.3-1.1,3.9c0,1.9,0.4,3.2,1.3,4.1c0.8,0.9,2,1.3,3.4,1.3c0.6,0,1.1,0,1.6-0.1
		C57.9,129.3,58.4,129.2,58.9,129z"/>
	<path class="st0" d="M70.8,121.7c0-1.1-0.3-1.9-0.9-2.4c-0.6-0.4-1.4-0.7-2.5-0.7c-0.7,0-1.3,0.1-1.9,0.2c-0.6,0.1-1.2,0.2-1.7,0.4
		c-0.4-0.6-0.6-1.4-0.6-2.3c0.7-0.2,1.4-0.4,2.2-0.5c0.8-0.1,1.6-0.2,2.3-0.2c1.9,0,3.4,0.4,4.4,1.3c1,0.9,1.5,2.3,1.5,4.2v9.4
		c-0.7,0.2-1.5,0.3-2.5,0.5c-1,0.2-2,0.2-3,0.2c-1,0-1.8-0.1-2.6-0.3c-0.8-0.2-1.4-0.5-2-0.8c-0.5-0.4-0.9-0.9-1.2-1.5
		c-0.3-0.6-0.4-1.3-0.4-2.2c0-0.8,0.2-1.6,0.5-2.2c0.3-0.6,0.8-1.2,1.4-1.6c0.6-0.4,1.3-0.7,2-0.9c0.8-0.2,1.6-0.3,2.4-0.3
		c0.6,0,1.1,0,1.5,0c0.4,0,0.7,0.1,1,0.1V121.7z M70.8,124.6c-0.3,0-0.7-0.1-1.1-0.1c-0.4,0-0.8-0.1-1.1-0.1c-1.2,0-2.1,0.2-2.8,0.7
		c-0.6,0.4-0.9,1.1-0.9,2c0,0.6,0.1,1,0.3,1.4c0.2,0.3,0.5,0.6,0.8,0.8c0.3,0.2,0.7,0.3,1.1,0.3c0.4,0,0.8,0.1,1.1,0.1
		c0.4,0,0.9,0,1.4-0.1c0.5,0,0.9-0.1,1.3-0.2V124.6z"/>
	<path class="st0" d="M78.5,118.9h-2.3l-0.1-0.4l5-5.6h0.2v3.7h3.8c0.1,0.3,0.1,0.7,0.1,1.1c0,0.2,0,0.4,0,0.6c0,0.2,0,0.4-0.1,0.6
		h-3.8v6.8c0,0.8,0,1.5,0.1,2c0.1,0.5,0.2,0.9,0.3,1.1c0.2,0.3,0.4,0.4,0.7,0.5c0.3,0.1,0.6,0.1,1.1,0.1c0.3,0,0.6,0,0.9-0.1
		c0.3,0,0.6-0.1,0.8-0.2c0.1,0.4,0.2,0.8,0.2,1.2c0,0.4,0,0.8,0,1.1c-0.4,0.1-0.8,0.2-1.2,0.2c-0.4,0-0.9,0.1-1.4,0.1
		c-1.4,0-2.5-0.3-3.3-1c-0.8-0.7-1.2-1.8-1.2-3.4V118.9z"/>
	<path class="st0" d="M89.3,118.9h-1.9c0-0.2-0.1-0.3-0.1-0.5c0-0.2,0-0.4,0-0.6c0-0.2,0-0.4,0-0.6c0-0.2,0-0.4,0.1-0.5h4.7v15
		c-0.2,0-0.5,0.1-0.7,0.1c-0.3,0-0.5,0-0.7,0c-0.2,0-0.4,0-0.7,0c-0.3,0-0.5,0-0.7-0.1V118.9z M88.6,113.3c0-0.2-0.1-0.5-0.1-0.8
		c0-0.3,0-0.5,0-0.7c0-0.2,0-0.5,0-0.7c0-0.3,0-0.5,0.1-0.7c0.3,0,0.5-0.1,0.8-0.1c0.3,0,0.5,0,0.8,0c0.2,0,0.5,0,0.8,0
		c0.3,0,0.6,0,0.8,0.1c0,0.2,0.1,0.5,0.1,0.7c0,0.3,0,0.5,0,0.7c0,0.2,0,0.5,0,0.7c0,0.3,0,0.5-0.1,0.8c-0.2,0-0.5,0.1-0.8,0.1
		c-0.3,0-0.5,0-0.7,0c-0.2,0-0.5,0-0.8,0C89.2,113.4,88.9,113.4,88.6,113.3z"/>
	<path class="st0" d="M102.9,131.9c-1.2,0-2.2-0.2-3.1-0.6c-0.9-0.4-1.6-0.9-2.2-1.6c-0.6-0.7-1-1.5-1.3-2.5c-0.3-1-0.4-2-0.4-3.1
		c0-1.1,0.1-2.1,0.4-3.1c0.3-1,0.7-1.8,1.3-2.5c0.6-0.7,1.3-1.3,2.2-1.7c0.9-0.4,1.9-0.6,3.1-0.6c1.2,0,2.2,0.2,3.1,0.6
		c0.9,0.4,1.6,1,2.2,1.7c0.6,0.7,1,1.5,1.3,2.5c0.3,1,0.4,2,0.4,3.1c0,1.1-0.1,2.1-0.4,3.1c-0.3,1-0.7,1.8-1.3,2.5
		c-0.6,0.7-1.3,1.2-2.2,1.6C105,131.7,104,131.9,102.9,131.9z M102.9,129.6c1.3,0,2.3-0.5,3-1.5c0.6-1,1-2.3,1-4.1
		c0-1.7-0.3-3.1-1-4c-0.6-1-1.6-1.4-3-1.4c-1.3,0-2.3,0.5-3,1.4c-0.6,1-0.9,2.3-0.9,4c0,1.7,0.3,3.1,0.9,4.1
		C100.5,129.1,101.5,129.6,102.9,129.6z"/>
	<path class="st0" d="M113.6,116.6c0.2,0,0.4-0.1,0.6-0.1c0.2,0,0.4,0,0.6,0c0.2,0,0.4,0,0.6,0c0.2,0,0.4,0,0.6,0.1
		c0.1,0.3,0.1,0.7,0.2,1.2c0.1,0.5,0.1,0.9,0.1,1.2c0.2-0.3,0.4-0.7,0.7-1c0.3-0.3,0.6-0.6,1-0.9c0.4-0.3,0.8-0.5,1.3-0.6
		c0.5-0.2,1.1-0.2,1.7-0.2c1.7,0,3,0.5,3.8,1.5c0.8,1,1.2,2.4,1.2,4.4v9.5c-0.2,0-0.5,0.1-0.7,0.1c-0.3,0-0.5,0-0.7,0
		c-0.2,0-0.5,0-0.7,0c-0.3,0-0.5,0-0.7-0.1v-8.7c0-1.4-0.2-2.4-0.6-3c-0.4-0.7-1.1-1-2-1c-0.5,0-1.1,0.1-1.5,0.3
		c-0.5,0.2-0.9,0.5-1.3,0.9c-0.4,0.4-0.7,0.9-0.9,1.6c-0.2,0.7-0.3,1.4-0.3,2.3v7.6c-0.2,0-0.5,0.1-0.7,0.1c-0.3,0-0.5,0-0.7,0
		c-0.2,0-0.5,0-0.7,0c-0.3,0-0.5,0-0.7-0.1V116.6z"/>
	<path class="st0" d="M144.1,128.5c0.4,0.8,0.7,1.6,0.8,2.4c-0.8,0.3-1.7,0.6-2.5,0.8c-0.9,0.2-1.8,0.2-2.8,0.2
		c-1.5,0-2.9-0.2-4.1-0.7c-1.2-0.5-2.2-1.2-3.1-2.1c-0.8-0.9-1.5-2-1.9-3.4c-0.4-1.3-0.7-2.8-0.7-4.5c0-1.7,0.2-3.2,0.7-4.5
		c0.4-1.4,1.1-2.5,1.9-3.5c0.8-1,1.9-1.7,3.1-2.2c1.2-0.5,2.6-0.8,4.1-0.8c1.1,0,2.1,0.1,2.9,0.2c0.8,0.2,1.5,0.3,2.1,0.6
		c0,0.4-0.1,0.9-0.2,1.2c-0.1,0.4-0.3,0.8-0.5,1.2c-0.3-0.1-0.6-0.2-0.8-0.3c-0.3-0.1-0.6-0.1-0.9-0.2c-0.3-0.1-0.7-0.1-1-0.1
		c-0.4,0-0.8,0-1.3,0c-2.1,0-3.8,0.7-4.9,2.2c-1.2,1.4-1.8,3.5-1.8,6.2c0,1.4,0.2,2.6,0.5,3.6c0.3,1,0.8,1.8,1.4,2.5
		c0.6,0.7,1.3,1.2,2.2,1.5c0.8,0.3,1.8,0.5,2.8,0.5c0.8,0,1.6-0.1,2.2-0.2C142.9,129,143.5,128.8,144.1,128.5z"/>
	<path class="st0" d="M148.4,110.2c0.2,0,0.5-0.1,0.7-0.1c0.3,0,0.5,0,0.7,0c0.2,0,0.5,0,0.7,0c0.3,0,0.5,0,0.7,0.1v8.7
		c0.2-0.3,0.4-0.6,0.7-0.9c0.3-0.3,0.6-0.6,1-0.9c0.4-0.3,0.8-0.5,1.3-0.6c0.5-0.2,1-0.2,1.6-0.2c1.7,0,3,0.5,3.8,1.5
		c0.8,1,1.2,2.4,1.2,4.4v9.5c-0.2,0-0.5,0.1-0.7,0.1c-0.3,0-0.5,0-0.7,0c-0.2,0-0.5,0-0.7,0c-0.3,0-0.5,0-0.7-0.1v-8.7
		c0-1.4-0.2-2.4-0.7-3c-0.5-0.7-1.2-1-2.1-1c-0.5,0-1,0.1-1.5,0.3c-0.5,0.2-0.9,0.5-1.3,0.9c-0.4,0.4-0.7,0.9-0.9,1.6
		c-0.2,0.6-0.3,1.4-0.3,2.3v7.7c-0.2,0-0.5,0.1-0.7,0.1c-0.3,0-0.5,0-0.7,0c-0.2,0-0.4,0-0.7,0c-0.3,0-0.5,0-0.7-0.1V110.2z"/>
	<path class="st0" d="M171.4,131.9c-1.2,0-2.2-0.2-3.1-0.6c-0.9-0.4-1.6-0.9-2.2-1.6c-0.6-0.7-1-1.5-1.3-2.5c-0.3-1-0.4-2-0.4-3.1
		c0-1.1,0.1-2.1,0.4-3.1c0.3-1,0.7-1.8,1.3-2.5c0.6-0.7,1.3-1.3,2.2-1.7c0.9-0.4,1.9-0.6,3.1-0.6c1.2,0,2.2,0.2,3.1,0.6
		c0.9,0.4,1.6,1,2.2,1.7c0.6,0.7,1,1.5,1.3,2.5c0.3,1,0.4,2,0.4,3.1c0,1.1-0.1,2.1-0.4,3.1c-0.3,1-0.7,1.8-1.3,2.5
		c-0.6,0.7-1.3,1.2-2.2,1.6C173.6,131.7,172.5,131.9,171.4,131.9z M171.4,129.6c1.3,0,2.3-0.5,3-1.5c0.6-1,1-2.3,1-4.1
		c0-1.7-0.3-3.1-1-4c-0.6-1-1.6-1.4-3-1.4c-1.3,0-2.3,0.5-3,1.4c-0.6,1-0.9,2.3-0.9,4c0,1.7,0.3,3.1,0.9,4.1
		C169.1,129.1,170,129.6,171.4,129.6z"/>
	<path class="st0" d="M183,118.9h-1.9c0-0.2-0.1-0.3-0.1-0.5c0-0.2,0-0.4,0-0.6c0-0.2,0-0.4,0-0.6c0-0.2,0-0.4,0.1-0.5h4.7v15
		c-0.2,0-0.5,0.1-0.7,0.1c-0.3,0-0.5,0-0.7,0c-0.2,0-0.4,0-0.7,0c-0.3,0-0.5,0-0.7-0.1V118.9z M182.4,113.3c0-0.2-0.1-0.5-0.1-0.8
		c0-0.3,0-0.5,0-0.7c0-0.2,0-0.5,0-0.7c0-0.3,0-0.5,0.1-0.7c0.3,0,0.5-0.1,0.8-0.1c0.3,0,0.5,0,0.8,0c0.2,0,0.5,0,0.8,0
		c0.3,0,0.6,0,0.8,0.1c0,0.2,0.1,0.5,0.1,0.7c0,0.3,0,0.5,0,0.7c0,0.2,0,0.5,0,0.7c0,0.3,0,0.5-0.1,0.8c-0.2,0-0.5,0.1-0.8,0.1
		c-0.3,0-0.5,0-0.7,0c-0.2,0-0.5,0-0.8,0C182.9,113.4,182.6,113.4,182.4,113.3z"/>
	<path class="st0" d="M200.5,129c0.2,0.3,0.3,0.6,0.4,1c0.1,0.4,0.2,0.8,0.2,1.3c-1.1,0.4-2.5,0.7-3.9,0.7c-2.5,0-4.4-0.7-5.6-2.1
		c-1.3-1.4-1.9-3.3-1.9-5.7c0-1.1,0.2-2.1,0.5-3.1c0.3-1,0.8-1.8,1.4-2.5c0.6-0.7,1.4-1.3,2.3-1.7c0.9-0.4,2-0.6,3.2-0.6
		c0.8,0,1.5,0,2.2,0.1c0.6,0.1,1.2,0.3,1.8,0.5c0,0.3,0,0.7-0.1,1.2c-0.1,0.4-0.2,0.8-0.4,1.2c-1-0.3-2-0.5-3.3-0.5
		c-1.5,0-2.6,0.5-3.4,1.5c-0.7,1-1.1,2.3-1.1,3.9c0,1.9,0.4,3.2,1.3,4.1c0.8,0.9,2,1.3,3.4,1.3c0.6,0,1.1,0,1.6-0.1
		C199.5,129.3,200,129.2,200.5,129z"/>
	<path class="st0" d="M206.2,124.8c0,1.6,0.5,2.8,1.3,3.6c0.8,0.8,2,1.1,3.6,1.1c1.4,0,2.7-0.2,3.9-0.7c0.2,0.3,0.3,0.6,0.4,1.1
		c0.1,0.4,0.2,0.8,0.2,1.2c-0.6,0.3-1.3,0.5-2.1,0.6c-0.8,0.1-1.6,0.2-2.6,0.2c-1.4,0-2.5-0.2-3.5-0.6c-1-0.4-1.8-0.9-2.4-1.6
		c-0.6-0.7-1.1-1.5-1.4-2.4c-0.3-0.9-0.4-2-0.4-3.1c0-1.1,0.1-2.1,0.4-3.1c0.3-1,0.7-1.8,1.3-2.5c0.6-0.7,1.3-1.3,2.2-1.7
		c0.9-0.4,1.9-0.6,3.1-0.6c1,0,1.9,0.2,2.7,0.5c0.8,0.3,1.4,0.8,2,1.4c0.5,0.6,0.9,1.3,1.2,2.2c0.3,0.8,0.4,1.8,0.4,2.8
		c0,0.3,0,0.6,0,0.9c0,0.3,0,0.6-0.1,0.8H206.2z M213.6,122.7c0-0.5-0.1-1.1-0.2-1.6c-0.1-0.5-0.4-0.9-0.6-1.3
		c-0.3-0.4-0.6-0.7-1.1-0.9c-0.4-0.2-1-0.3-1.6-0.3c-1.2,0-2.1,0.4-2.7,1.1c-0.6,0.7-1,1.7-1.2,3H213.6z"/>
</g>
<g>
	<path class="st0" d="M45.7,144H44v-0.6h4.1v0.6h-1.7v4.9h-0.7V144z"/>
	<path class="st0" d="M50.5,143.4v2.3h2.7v-2.3h0.7v5.5h-0.7v-2.6h-2.7v2.6h-0.7v-5.5H50.5z"/>
	<path class="st0" d="M59,146.3h-2.2v2h2.4v0.6h-3.1v-5.5h3v0.6h-2.3v1.7H59V146.3z"/>
	<path class="st0" d="M64,143.4c0.3-0.1,0.8-0.1,1.3-0.1c0.7,0,1.2,0.1,1.5,0.4c0.3,0.2,0.5,0.5,0.5,1c0,0.5-0.4,1-0.9,1.2v0
		c0.5,0.1,1.1,0.6,1.1,1.4c0,0.5-0.2,0.8-0.5,1.1c-0.4,0.4-1,0.5-1.9,0.5c-0.5,0-0.9,0-1.1-0.1V143.4z M64.7,145.7h0.6
		c0.8,0,1.2-0.4,1.2-0.9c0-0.6-0.5-0.9-1.2-0.9c-0.3,0-0.5,0-0.6,0V145.7z M64.7,148.4c0.1,0,0.3,0,0.6,0c0.7,0,1.4-0.3,1.4-1.1
		c0-0.8-0.6-1.1-1.4-1.1h-0.6V148.4z"/>
	<path class="st0" d="M72.4,146.3h-2.2v2h2.4v0.6h-3.1v-5.5h3v0.6h-2.3v1.7h2.2V146.3z"/>
	<path class="st0" d="M74.5,148c0.3,0.2,0.8,0.4,1.3,0.4c0.7,0,1.2-0.4,1.2-0.9c0-0.5-0.3-0.8-1-1.1c-0.9-0.3-1.5-0.8-1.5-1.6
		c0-0.9,0.7-1.5,1.8-1.5c0.6,0,1,0.1,1.2,0.3l-0.2,0.6c-0.2-0.1-0.6-0.3-1.1-0.3c-0.8,0-1,0.5-1,0.8c0,0.5,0.3,0.8,1.1,1.1
		c0.9,0.4,1.4,0.8,1.4,1.6c0,0.9-0.6,1.6-1.9,1.6c-0.5,0-1.1-0.2-1.4-0.4L74.5,148z"/>
	<path class="st0" d="M80.7,144H79v-0.6h4.1v0.6h-1.7v4.9h-0.7V144z"/>
	<path class="st0" d="M91.4,148.7c-0.3,0.1-0.8,0.3-1.5,0.3c-1.6,0-2.7-1-2.7-2.8c0-1.7,1.2-2.9,2.9-2.9c0.7,0,1.1,0.1,1.3,0.2
		l-0.2,0.6c-0.3-0.1-0.7-0.2-1.1-0.2c-1.3,0-2.2,0.8-2.2,2.3c0,1.4,0.8,2.2,2.1,2.2c0.4,0,0.9-0.1,1.2-0.2L91.4,148.7z"/>
	<path class="st0" d="M97.9,146.1c0,1.9-1.2,2.9-2.6,2.9c-1.5,0-2.5-1.1-2.5-2.8c0-1.8,1.1-2.9,2.6-2.9
		C97,143.3,97.9,144.4,97.9,146.1z M93.6,146.2c0,1.2,0.6,2.2,1.8,2.2c1.1,0,1.8-1,1.8-2.3c0-1.1-0.6-2.2-1.8-2.2
		C94.2,143.9,93.6,144.9,93.6,146.2z"/>
	<path class="st0" d="M104.6,146.5c0-0.8-0.1-1.7-0.1-2.4h0c-0.2,0.6-0.4,1.3-0.7,2.1l-1,2.7h-0.5l-0.9-2.6
		c-0.3-0.8-0.5-1.5-0.6-2.2h0c0,0.7-0.1,1.6-0.1,2.4l-0.1,2.4h-0.7l0.4-5.5h0.9l0.9,2.7c0.2,0.7,0.4,1.3,0.6,1.9h0
		c0.1-0.6,0.3-1.2,0.6-1.9l1-2.7h0.9l0.3,5.5h-0.7L104.6,146.5z"/>
	<path class="st0" d="M107.5,143.4c0.3-0.1,0.8-0.1,1.4-0.1c0.7,0,1.2,0.2,1.6,0.5c0.3,0.3,0.5,0.7,0.5,1.2c0,0.5-0.1,0.9-0.4,1.2
		c-0.4,0.4-1,0.6-1.7,0.6c-0.2,0-0.4,0-0.6,0v2.2h-0.7V143.4z M108.3,146.1c0.2,0,0.4,0.1,0.6,0.1c0.9,0,1.4-0.4,1.4-1.2
		c0-0.7-0.5-1.1-1.3-1.1c-0.3,0-0.6,0-0.7,0.1V146.1z"/>
	<path class="st0" d="M113.2,147.2l-0.6,1.7h-0.7l1.9-5.5h0.9l1.9,5.5h-0.8l-0.6-1.7H113.2z M115,146.6l-0.5-1.6
		c-0.1-0.4-0.2-0.7-0.3-1h0c-0.1,0.3-0.2,0.7-0.3,1l-0.5,1.6H115z"/>
	<path class="st0" d="M118.3,148.9v-5.5h0.8l1.8,2.8c0.4,0.6,0.7,1.2,1,1.8l0,0c-0.1-0.7-0.1-1.4-0.1-2.3v-2.3h0.7v5.5h-0.7
		l-1.8-2.8c-0.4-0.6-0.8-1.2-1-1.8l0,0c0,0.7,0.1,1.4,0.1,2.3v2.4H118.3z"/>
	<path class="st0" d="M125.9,148.9v-2.3l-1.7-3.2h0.8l0.8,1.5c0.2,0.4,0.4,0.8,0.5,1.1h0c0.2-0.4,0.3-0.7,0.6-1.1l0.8-1.5h0.8
		l-1.9,3.2v2.4H125.9z"/>
	<path class="st0" d="M132.9,148c0.3,0.2,0.8,0.4,1.3,0.4c0.7,0,1.2-0.4,1.2-0.9c0-0.5-0.3-0.8-1-1.1c-0.9-0.3-1.5-0.8-1.5-1.6
		c0-0.9,0.7-1.5,1.8-1.5c0.6,0,1,0.1,1.2,0.3l-0.2,0.6c-0.2-0.1-0.6-0.3-1.1-0.3c-0.8,0-1,0.5-1,0.8c0,0.5,0.3,0.8,1.1,1.1
		c0.9,0.4,1.4,0.8,1.4,1.6c0,0.9-0.6,1.6-1.9,1.6c-0.5,0-1.1-0.2-1.4-0.4L132.9,148z"/>
	<path class="st0" d="M138.1,143.4h0.7v4.9h2.4v0.6h-3.1V143.4z"/>
	<path class="st0" d="M147.4,146.1c0,1.9-1.2,2.9-2.6,2.9c-1.5,0-2.5-1.1-2.5-2.8c0-1.8,1.1-2.9,2.6-2.9
		C146.4,143.3,147.4,144.4,147.4,146.1z M143.1,146.2c0,1.2,0.6,2.2,1.8,2.2c1.1,0,1.8-1,1.8-2.3c0-1.1-0.6-2.2-1.8-2.2
		C143.7,143.9,143.1,144.9,143.1,146.2z"/>
	<path class="st0" d="M153.6,148.7c-0.3,0.1-1,0.3-1.7,0.3c-0.8,0-1.5-0.2-2.1-0.7c-0.5-0.5-0.8-1.2-0.8-2.1c0-1.7,1.1-2.9,3-2.9
		c0.6,0,1.1,0.1,1.4,0.3l-0.2,0.6c-0.3-0.1-0.7-0.2-1.2-0.2c-1.3,0-2.2,0.8-2.2,2.2c0,1.4,0.8,2.2,2.1,2.2c0.5,0,0.8-0.1,1-0.1v-1.7
		h-1.1V146h1.8V148.7z"/>
	<path class="st0" d="M156.6,147.2l-0.6,1.7h-0.7l1.9-5.5h0.9l1.9,5.5h-0.8l-0.6-1.7H156.6z M158.4,146.6l-0.5-1.6
		c-0.1-0.4-0.2-0.7-0.3-1h0c-0.1,0.3-0.2,0.7-0.3,1l-0.5,1.6H158.4z"/>
	<path class="st0" d="M161.8,148.9v-5.5h0.8l1.8,2.8c0.4,0.6,0.7,1.2,1,1.8l0,0c-0.1-0.7-0.1-1.4-0.1-2.3v-2.3h0.7v5.5h-0.7
		l-1.8-2.8c-0.4-0.6-0.8-1.2-1-1.8l0,0c0,0.7,0.1,1.4,0.1,2.3v2.4H161.8z"/>
</g>
<path class="st0" d="M109,62.2l-3,8.7c-4.6-8.5-8.1-13.6-20.7-26.5c0,13.1,0,27.7,0,33.8c13.1,6.6,18.6,16.5,18.6,16.5
	s5.5-9.9,18.6-16.5c0-7.7,0-29.2,0-43.8C113.5,49.2,109,62,109,62.2z"/>
<path class="st0" d="M85.1,39c0,0,14.4,12.5,20,21.9c0,0,13.3-38.5,40.4-60.9c0,0-25.9,13.4-41.8,36.2c0,0-6.9-10.9-18.6-16.3V39z"
	/>
</svg>
