<?xml version="1.0" encoding="utf-8"?>
<!-- Generator: Adobe Illustrator 24.0.1, SVG Export Plug-In . SVG Version: 6.00 Build 0)  -->
<svg version="1.1" id="Layer_1" xmlns="http://www.w3.org/2000/svg" xmlns:xlink="http://www.w3.org/1999/xlink" x="0px" y="0px"
	 viewBox="0 0 70 70" style="enable-background:new 0 0 70 70;" xml:space="preserve">
<style type="text/css">
	.st0{fill:none;}
	.st1{fill:#DB8D6E;}
	.st2{fill:#E6E9ED;}
	.st3{fill:#FFD05B;}
	.st4{fill:#F05540;}
	.st5{fill:#F3705A;}
	.st6{fill:#FFFFFF;}
	.st7{fill:#F8B54C;}
	.st8{fill:#334A5E;}
	.st9{clip-path:url(#SVGID_2_);}
	.st10{fill:#505150;}
</style>
<rect x="-251.4" y="8.8" class="st0" width="70" height="70"/>
<path class="st1" d="M-216.4,96.2c29,0,52.5-23.5,52.5-52.5s-23.5-52.5-52.5-52.5s-52.5,23.5-52.5,52.5S-245.4,96.2-216.4,96.2z"/>
<path class="st2" d="M-216.2,58.8c-0.1,0-0.1,0.1-0.2,0.1c-0.1,0-0.1-0.1-0.2-0.1H-216.2z"/>
<ellipse class="st2" cx="-216.4" cy="86.5" rx="37.9" ry="33.2"/>
<path class="st2" d="M-188.2,64.4c-6.3,8.7-16.6,14.3-28.2,14.3s-21.8-5.6-28.2-14.3c5-5.3,11.7-8.1,17.3-9.5
	c-0.5,4,1.6,9.4,1.7,9.3c2.1-4.9,9.2-5.3,9.2-5.3s7.1,0.4,9.3,5.3c0.1,0.1,2.1-5.2,1.7-9.3C-199.9,56.3-193.2,59.1-188.2,64.4z"/>
<path class="st3" d="M-207.7,51.2c0,0.7-0.4,4.5-8.5,7.6h-0.4c-8-3.1-8.5-6.9-8.5-7.6c0.1-1.4,0.4-2.9,1-4.2
	c2.2,2.5,4.9,4.1,7.7,4.1c2.8,0,5.5-1.6,7.7-4.1C-208.1,48.3-207.7,49.8-207.7,51.2z"/>
<path class="st4" d="M-211.7,60.1l-1.8,3.5h-6.1l-1.8-3.5c2.4-1,4.8-1.2,4.8-1.2S-214,59-211.7,60.1z"/>
<path class="st5" d="M-221.4,79.8c1.6,0.2,3.3,0.4,5,0.4c1.7,0,3.3-0.1,5-0.4l-1.9-16.1h-6.1L-221.4,79.8z"/>
<path class="st6" d="M-207.7,51.1c0,0,0.4,4.4-8.7,7.8c0,0,7.1,0.4,9.3,5.3C-207.1,64.4-203,53.7-207.7,51.1z"/>
<path class="st6" d="M-225.2,51.1c-4.7,2.6-0.6,13.2-0.5,13.1c2.1-4.9,9.3-5.3,9.3-5.3C-225.5,55.5-225.2,51.1-225.2,51.1z"/>
<path class="st7" d="M-208.3,48.1c-2.3,2.5-5.1,4.1-8.2,4.1c-3.1,0-5.8-1.6-8.2-4.1c0.1-0.4,0.3-0.8,0.4-1.1
	c2.2,2.5,4.9,4.1,7.7,4.1c2.9,0,5.5-1.6,7.7-4.1C-208.6,47.3-208.4,47.7-208.3,48.1z"/>
<path class="st3" d="M-201.4,39.7c-1.2,1.9-2.9,3.1-4.2,2.9c-2.6,4.9-6.5,8.5-10.8,8.5c-4.3,0-8.2-3.7-10.8-8.5
	c-1.3,0.2-3.1-0.9-4.2-2.9c-1.4-2.3-1.4-4.7-0.1-5.6c0.3-0.2,0.7-0.3,1-0.2c0.9,2.3,2.1,3.6,2.1,3.6c-1.3-7,3.9-7.8,3-14.5
	c0,0,3.3,7.2,12.6,2.1l-0.7,1.4c13-2.9,8.7,12.4,8.5,12.8c1.5-1.9,2.4-3.7,3-5.5c0.2,0,0.5,0.1,0.7,0.2
	C-200,34.9-200,37.4-201.4,39.7z"/>
<path class="st8" d="M-209,15.8c1-0.1,2.8,0.8,2.8,0.8c-4.7-5.3-12.3-1.9-12.3-1.9c2.6-2.2,4.9-2,4.9-2c-11-1.7-12.8,4.9-12.8,4.9
	c-0.5-0.8-0.5-1.9-0.4-2.4c-0.8,1.3,0.1,4,0.1,4c-0.8-1.9-3.5-1.6-3.5-1.6c2.3,0.4,2.7,1.8,2.7,1.8c-5.8,2.1-4.8,8.2-4.8,8.2
	l1.4-1.7c-1.7,6.6,2.6,11.6,2.6,11.6c-1.3-7,3.9-7.8,3-14.5c0,0,3.3,7.2,12.6,2.1l-0.7,1.4c13.2-3,8.5,12.8,8.5,12.8
	c4.7-6,4-12.1,4-12.1l0.6,2.2C-199,19.6-209,15.8-209,15.8z"/>
<g>
	<defs>
		<rect id="SVGID_1_" x="1.1" y="1.1" width="67.9" height="67.9"/>
	</defs>
	<clipPath id="SVGID_2_">
		<use xlink:href="#SVGID_1_"  style="overflow:visible;"/>
	</clipPath>
	<g class="st9">
		<path class="st10" d="M32.9,68.9h4.3c3.4,0,6.2-2.8,6.2-6.2v-1.4c1.5-0.5,2.9-1.1,4.3-1.8l1,1c2.5,2.5,6.4,2.4,8.8,0l3-3
			c2.4-2.4,2.5-6.4,0-8.8l-1-1c0.7-1.4,1.3-2.8,1.8-4.3h1.4c3.4,0,6.2-2.8,6.2-6.2v-4.3c0-3.4-2.8-6.2-6.2-6.2h-1.4
			c-0.5-1.5-1.1-2.9-1.8-4.3l1-1c2.5-2.5,2.4-6.4,0-8.8l-3-3c-2.4-2.4-6.4-2.5-8.8,0l-1,1c-1.4-0.7-2.8-1.3-4.3-1.8V7.3
			c0-3.4-2.8-6.2-6.2-6.2h-4.3c-3.4,0-6.2,2.8-6.2,6.2v1.4c-1.5,0.5-2.9,1.1-4.3,1.8l-1-1c-2.5-2.5-6.4-2.4-8.8,0l-3,3
			c-2.4,2.4-2.5,6.4,0,8.8l1,1c-0.7,1.4-1.3,2.8-1.8,4.3H7.3c-3.4,0-6.2,2.8-6.2,6.2v4.3c0,3.4,2.8,6.2,6.2,6.2h1.4
			c0.5,1.5,1.1,2.9,1.8,4.3l-1,1c-2.5,2.5-2.4,6.4,0,8.8l3,3c2.4,2.4,6.4,2.5,8.8,0l1-1c1.4,0.7,2.8,1.3,4.3,1.8v1.4
			C26.6,66.1,29.4,68.9,32.9,68.9z M47,55.3c-1.9,1.1-3.9,2-6.1,2.5c-0.9,0.2-1.5,1-1.5,1.9v2.9c0,1.3-1,2.3-2.3,2.3h-4.3
			c-1.3,0-2.3-1-2.3-2.3v-2.9c0-0.9-0.6-1.7-1.5-1.9c-2.1-0.6-4.2-1.4-6.1-2.5c-0.8-0.5-1.8-0.3-2.4,0.3l-2.1,2.1
			c-0.9,0.9-2.3,0.9-3.2,0l-3-3c-0.9-0.9-0.9-2.3,0-3.2l2.1-2.1c0.6-0.6,0.8-1.6,0.3-2.4c-1.1-1.9-2-3.9-2.5-6.1
			c-0.2-0.9-1-1.5-1.9-1.5H7.3c-1.3,0-2.3-1-2.3-2.3v-4.3c0-1.3,1-2.3,2.3-2.3h2.9c0.9,0,1.7-0.6,1.9-1.5c0.6-2.1,1.4-4.2,2.5-6.1
			c0.5-0.8,0.3-1.8-0.3-2.4l-2.1-2.1c-0.9-0.9-0.9-2.3,0-3.2l3-3c0.9-0.9,2.3-0.9,3.2,0l2.1,2.1c0.6,0.6,1.6,0.8,2.4,0.3
			c1.9-1.1,3.9-2,6.1-2.5c0.9-0.2,1.5-1,1.5-1.9V7.3c0-1.3,1-2.3,2.3-2.3h4.3c1.3,0,2.3,1,2.3,2.3v2.9c0,0.9,0.6,1.7,1.5,1.9
			c2.1,0.6,4.2,1.4,6.1,2.5c0.8,0.5,1.8,0.3,2.4-0.3l2.1-2.1c0.9-0.9,2.3-0.9,3.2,0l3,3c0.9,0.9,0.9,2.3,0,3.2l-2.1,2.1
			c-0.6,0.6-0.8,1.6-0.3,2.4c1.1,1.9,2,3.9,2.5,6.1c0.2,0.9,1,1.5,1.9,1.5h2.9c1.3,0,2.3,1,2.3,2.3v4.3c0,1.3-1,2.3-2.3,2.3h-2.9
			c-0.9,0-1.7,0.6-1.9,1.5c-0.6,2.1-1.4,4.2-2.5,6.1c-0.5,0.8-0.3,1.8,0.3,2.4l2.1,2.1c0.9,0.9,0.9,2.3,0,3.2l-3,3
			c-0.9,0.9-2.3,0.9-3.2,0l-2.1-2.1C48.9,55.1,47.9,54.7,47,55.3z"/>
		<path class="st10" d="M35,49.8c8.1,0,14.8-6.6,14.8-14.8S43.1,20.2,35,20.2S20.2,26.9,20.2,35S26.9,49.8,35,49.8z M35,24.2
			c6,0,10.8,4.8,10.8,10.8S41,45.8,35,45.8S24.2,41,24.2,35S29,24.2,35,24.2z"/>
	</g>
</g>
</svg>
