<?xml version="1.0" encoding="utf-8"?>
<!-- Generator: Adobe Illustrator 23.0.3, SVG Export Plug-In . SVG Version: 6.00 Build 0)  -->
<svg version="1.1" id="Layer_1" xmlns="http://www.w3.org/2000/svg" xmlns:xlink="http://www.w3.org/1999/xlink" x="0px" y="0px"
	 viewBox="0 0 25 25" style="enable-background:new 0 0 25 25;" xml:space="preserve">
<style type="text/css">
	.st0{fill:#57C1AA;}
</style>
<g>
	<path class="st0" d="M-27-0.4l1.4-1.4c-2-1.6-4.5-2.5-7.3-2.5c-6.6,0-12,5.4-12,12h2c0-5.5,4.5-10,10-10C-30.6-2.3-28.6-1.6-27-0.4
		z"/>
	<path class="st0" d="M-22.8,7.7h2c0-2.4-0.7-4.7-2-6.6l1.6-1.6L-22.6-2l-8.2,8.2c-0.6-0.3-1.3-0.6-2-0.6c-2.2,0-4,1.8-4,4
		s1.8,4,4,4c2.2,0,4-1.8,4-4c0-0.7-0.2-1.4-0.6-2l5.1-5.1C-23.3,4-22.8,5.8-22.8,7.7z M-32.8,11.7c-1.1,0-2-0.9-2-2s0.9-2,2-2
		c1.1,0,2,0.9,2,2S-31.7,11.7-32.8,11.7z"/>
</g>
<g>
	<g>
		<path class="st0" d="M-22.3,43h-20V25h20V43z M-40.3,41h16V27h-16V41z"/>
	</g>
	<g>
		<polygon class="st0" points="-18.3,40 -20.3,40 -20.3,23 -39.3,23 -39.3,21 -18.3,21 		"/>
	</g>
	<g>
		<rect x="-37.3" y="31" class="st0" width="10" height="2"/>
	</g>
	<g>
		<rect x="-38.3" y="35" class="st0" width="12" height="2"/>
	</g>
</g>
<g>
	<g>
		<polygon class="st0" points="-18.8,67.1 -42.8,67.1 -42.8,50.1 -26.8,50.1 -26.8,52.1 -40.8,52.1 -40.8,65.1 -20.8,65.1 
			-20.8,45.1 -18.8,45.1 		"/>
	</g>
	<g>
		<rect x="-24.8" y="50.1" class="st0" width="2" height="13"/>
	</g>
	<g>
		<rect x="-28.8" y="58.1" class="st0" width="2" height="5"/>
	</g>
	<g>
		<rect x="-38.8" y="54.1" class="st0" width="4" height="2"/>
	</g>
	<g>
		<rect x="-38.8" y="58.1" class="st0" width="8" height="2"/>
	</g>
</g>
<g>
	<g>
		<path class="st0" d="M19.6,11.9c-0.4,4.2-2.9,7.2-7.9,9.6c-5.5-2.6-8-6-8-10.9v-5c0.3,0,0.7,0,1,0c2.5,0,4.9-0.6,7-1.8
			c1.7,1,3.7,1.6,5.8,1.8l2-2c-0.3,0-0.5,0-0.8,0c-2.4,0-4.6-0.6-6.5-1.8l-0.5-0.3l-0.5,0.3C9.2,2.9,7,3.5,4.6,3.5
			c-0.6,0-1.3,0-1.8-0.1L1.6,3.2v7.3c0,7.7,5.5,11.1,9.6,12.9l0.4,0.2l0.4-0.2c4.1-1.8,9.6-5.2,9.6-12.9V9.8L19.6,11.9z"/>
	</g>
	<g>
		<polygon class="st0" points="11.7,16.9 6,12.3 7.3,10.8 11.6,14.2 21.9,3.8 23.4,5.3 		"/>
	</g>
</g>
</svg>
